<?xml version="1.0" encoding="UTF-8"?>
<svg version="1.1" xmlns="http://www.w3.org/2000/svg" width="512" height="512">
<path d="M0 0 C1.3386968 1.11511487 2.64841672 2.26538458 3.9375 3.4375 C4.83597656 4.23285156 5.73445313 5.02820313 6.66015625 5.84765625 C15.02683337 13.67382125 21.46539705 22.62845285 22.17578125 34.37890625 C22.52229087 48.77778575 19.78838584 59.51489764 10.05749512 70.57414246 C7.97948129 72.72306703 5.86337426 74.8237072 3.72265625 76.91015625 C2.94869003 77.67750595 2.17472382 78.44485565 1.37730408 79.23545837 C-1.07471022 81.66427212 -3.5367106 84.08262691 -6 86.5 C-8.45794356 88.92266092 -10.91363969 91.34753922 -13.36659241 93.7752533 C-14.88596288 95.2778993 -16.40841946 96.77743397 -17.93455505 98.27320862 C-21.1457157 101.43965734 -24.26428357 104.61743306 -27.18457031 108.05517578 C-32.27197903 113.95974167 -37.88396605 119.3686244 -43.40882301 124.85898781 C-45.49165756 126.92894345 -47.57125078 129.0021081 -49.65007019 131.07609558 C-54.05556355 135.4702283 -58.46499986 139.86039098 -62.875 144.25 C-68.00510112 149.35648315 -73.13356403 154.46458966 -78.25784874 159.57691002 C-80.30656869 161.61914923 -82.35827561 163.65835504 -84.41011047 165.69746399 C-85.66133077 166.9450531 -86.91241163 168.19278207 -88.16333008 169.44067383 C-89.01969307 170.28928734 -89.01969307 170.28928734 -89.89335632 171.15504456 C-94.94996022 176.08564156 -94.94996022 176.08564156 -96.31303978 182.69029045 C-96.31803848 183.5625788 -96.32303717 184.43486715 -96.32818735 185.33358848 C-96.32119253 186.77212139 -96.32119253 186.77212139 -96.3140564 188.23971558 C-96.31702654 189.25807814 -96.31999667 190.2764407 -96.32305682 191.32566273 C-96.33072499 194.75476255 -96.32419108 198.18369249 -96.31787109 201.61279297 C-96.32061978 204.06501889 -96.32429894 206.51724391 -96.32884216 208.96946716 C-96.33696888 214.26016501 -96.33928112 219.5508184 -96.33689499 224.8415184 C-96.33379782 232.50517285 -96.34543582 240.16875339 -96.36144479 247.83238925 C-96.3874252 260.28441174 -96.40743182 272.73643429 -96.42089844 285.18847656 C-96.42170881 285.93401433 -96.42251918 286.6795521 -96.4233541 287.44768192 C-96.43455678 298.00938624 -96.4398522 308.5710853 -96.44274123 319.13279475 C-96.44294522 319.87530061 -96.44314921 320.61780647 -96.44335938 321.3828125 C-96.44355931 322.12440998 -96.44375925 322.86600746 -96.44396524 323.63007759 C-96.44770602 336.02312126 -96.4668489 348.41608513 -96.49845374 360.80908883 C-96.51731599 368.44598937 -96.52336221 376.08268472 -96.51263656 383.71960206 C-96.50553543 389.5848711 -96.5191683 395.44997892 -96.54025459 401.31521797 C-96.5455604 403.71246509 -96.54410754 406.10973866 -96.53521919 408.50697517 C-96.46750457 428.38110092 -98.47472721 444.58109055 -112.75 459.75 C-122.69266682 469.14869113 -135.47473752 475.54976596 -149.31660652 475.56892776 C-150.36131335 475.57276891 -151.40602019 475.57661005 -152.4823848 475.5805676 C-153.62371082 475.57970112 -154.76503683 475.57883463 -155.94094849 475.57794189 C-157.76718807 475.58239858 -157.76718807 475.58239858 -159.63032138 475.5869453 C-163.00687407 475.59411844 -166.38337587 475.59680406 -169.75993252 475.59754276 C-173.4029033 475.59939587 -177.0458631 475.60694455 -180.68882751 475.61367798 C-188.65389051 475.62725205 -196.61894846 475.63328472 -204.58402109 475.63768864 C-209.55967598 475.64045291 -214.53532893 475.64469063 -219.51098251 475.64919281 C-233.29315379 475.66138481 -247.07532352 475.67168391 -260.85750008 475.6750679 C-261.73937305 475.67528747 -262.62124603 475.67550703 -263.52984243 475.67573325 C-264.41380132 475.67595153 -265.29776022 475.67616981 -266.20850575 475.6763947 C-267.99968092 475.67683816 -269.79085608 475.67728473 -271.58203125 475.67773438 C-272.47051214 475.6779558 -273.35899304 475.67817723 -274.2743976 475.67840537 C-288.66439308 475.68235167 -303.05433787 475.69980084 -317.44431378 475.7230939 C-332.22621942 475.74682775 -347.00809964 475.7592707 -361.79002464 475.76043582 C-370.08628276 475.76135149 -378.38247485 475.76707659 -386.67871475 475.78525543 C-393.7446069 475.80068395 -400.81041261 475.80576073 -407.87631841 475.79751733 C-411.47870506 475.79362039 -415.08091779 475.7944933 -418.68328285 475.80857468 C-422.59631272 475.82372991 -426.50910011 475.81541865 -430.42214966 475.80499268 C-431.55009134 475.81304908 -432.67803303 475.82110548 -433.84015477 475.82940602 C-449.28819616 475.73340011 -462.72266029 470.39464592 -473.8828125 459.64453125 C-474.96175781 458.55205078 -474.96175781 458.55205078 -476.0625 457.4375 C-476.63742187 456.88449219 -477.21234375 456.33148438 -477.8046875 455.76171875 C-485.71271055 447.50541489 -490.30619672 434.82765613 -490.31976891 423.53732109 C-490.32327498 422.87636157 -490.32678105 422.21540205 -490.33039337 421.53441346 C-490.33966942 419.32794139 -490.33479398 417.12173546 -490.32992554 414.91525269 C-490.33366373 413.31392678 -490.33826593 411.71260271 -490.34365618 410.11128151 C-490.35588099 405.71696175 -490.35562632 401.32271815 -490.35326743 396.92838526 C-490.35285913 392.1865538 -490.36389981 387.44474672 -490.37338257 382.70292664 C-490.38999138 373.41436329 -490.39549209 364.12582532 -490.39660732 354.83724837 C-490.39755798 347.28508172 -490.40166917 339.73292343 -490.40800858 332.18075943 C-490.4256217 310.76166729 -490.43484749 289.34259519 -490.43334763 267.92349575 C-490.43326772 266.7689277 -490.4331878 265.61435965 -490.43310547 264.42480469 C-490.43302371 263.26882409 -490.43294195 262.11284349 -490.43285771 260.92183317 C-490.43204509 242.19426555 -490.45117655 223.46677842 -490.4793822 204.73923407 C-490.50812534 185.50274286 -490.52192167 166.26629088 -490.52019465 147.02977765 C-490.51953118 136.23289983 -490.52500455 125.43610635 -490.54655075 114.63924789 C-490.56478147 105.44492008 -490.56909443 96.25071482 -490.5555319 87.05637674 C-490.54901145 82.36816488 -490.54885161 77.68018803 -490.5662384 72.99199867 C-490.58201534 68.69353862 -490.57905859 64.39549899 -490.56167014 60.09704889 C-490.55861035 58.54858296 -490.56219384 57.00008528 -490.57339029 55.4516568 C-490.68645435 38.69488458 -486.48821261 23.96435713 -474.75 11.5625 C-461.4691239 -0.84492893 -445.80804816 -4.71259412 -428.16700745 -4.70967102 C-426.37412297 -4.71518605 -426.37412297 -4.71518605 -424.54501861 -4.7208125 C-421.2396473 -4.72990188 -417.93432548 -4.73454076 -414.62894642 -4.73720181 C-411.05885183 -4.74112056 -407.48877141 -4.75069773 -403.91868591 -4.75941467 C-395.30298997 -4.77913485 -386.68729294 -4.78923962 -378.07158008 -4.79814246 C-374.0076745 -4.80253264 -369.94377021 -4.80789755 -365.87986565 -4.81313133 C-352.3592649 -4.83013914 -338.83866495 -4.84463144 -325.31805515 -4.85188007 C-321.8130296 -4.85378976 -318.30800405 -4.85571012 -314.80297852 -4.85766602 C-313.49635062 -4.85839163 -313.49635062 -4.85839163 -312.1633262 -4.8591319 C-298.06457883 -4.86742535 -283.96591649 -4.89275269 -269.86720622 -4.92524669 C-255.37110659 -4.95838244 -240.87505007 -4.97633471 -226.37891239 -4.97952431 C-218.24849637 -4.98168338 -210.11820435 -4.99034328 -201.98782539 -5.01598549 C-195.06117936 -5.03778172 -188.13468748 -5.04569935 -181.20801104 -5.03601871 C-177.67987042 -5.03149966 -174.15204723 -5.03321859 -170.62395096 -5.05278015 C-147.93071646 -5.15802731 -129.67790052 -4.27302102 -112.3828125 11.96484375 C-103.20862177 21.74138033 -98.48852989 34.42515789 -96.0625 47.4375 C-95.46058838 46.76702637 -94.85867676 46.09655273 -94.23852539 45.40576172 C-86.59981174 36.97824867 -78.70310561 28.8271407 -70.68286133 20.76269531 C-69.22135469 19.28958293 -67.76434845 17.81199261 -66.31176758 16.33007812 C-50.75520787 0.46123579 -50.75520787 0.46123579 -42.0625 -3.5625 C-40.99443115 -4.0716394 -40.99443115 -4.0716394 -39.90478516 -4.59106445 C-27.80400914 -9.96832547 -10.60721328 -7.37800117 0 0 Z M-48.5625 26.75 C-49.38492187 27.58595703 -50.20734375 28.42191406 -51.0546875 29.28320312 C-53.06435336 31.32792129 -55.06662487 33.37933363 -57.0625 35.4375 C-52.08889952 41.43843435 -46.70892579 46.94068681 -41.1875 52.4375 C-40.32769531 53.30117187 -39.46789062 54.16484375 -38.58203125 55.0546875 C-32.38436735 61.24294675 -26.11878343 67.23220421 -19.0625 72.4375 C-16.12898909 69.62118529 -13.21903547 66.7816252 -10.3125 63.9375 C-9.4875 63.14601562 -8.6625 62.35453125 -7.8125 61.5390625 C-2.14044077 55.9584881 2.19566529 51.10669494 3.46875 43.09375 C3.38490125 34.62502638 2.57734695 29.35834052 -3.23828125 23.09375 C-10.93208285 15.72301628 -17.50443076 12.08512127 -28.19140625 11.80859375 C-36.76719006 13.68709878 -42.68403223 20.68483822 -48.5625 26.75 Z M-462.875 27.0625 C-472.31336198 38.70984032 -472.21284827 52.0643194 -472.19621277 66.28948975 C-472.19808259 67.80576898 -472.20038397 69.32204774 -472.20307809 70.83832574 C-472.20918137 74.99286827 -472.20906423 79.14739064 -472.20788372 83.30193663 C-472.20767934 87.78741483 -472.21320202 92.27288662 -472.21794128 96.75836182 C-472.22624033 105.54178524 -472.22899579 114.32520195 -472.22955366 123.10862896 C-472.23002918 130.24983167 -472.2320857 137.39103218 -472.23525429 144.53223419 C-472.24405884 164.78839262 -472.24867398 185.04454576 -472.24792381 205.30070612 C-472.24788386 206.39224458 -472.2478439 207.48378305 -472.24780273 208.60839844 C-472.24776185 209.70127294 -472.24772097 210.79414743 -472.24767885 211.92013934 C-472.24727244 229.62981559 -472.25684125 247.33947057 -472.2709411 265.04914066 C-472.28531163 283.24265304 -472.29221091 301.43615505 -472.29134732 319.62967324 C-472.29101559 329.84017857 -472.29375244 340.0506616 -472.30452538 350.2611618 C-472.31363927 358.95480851 -472.31579831 367.6484228 -472.30901595 376.34207222 C-472.30575525 380.77492041 -472.30567782 385.20770646 -472.3143692 389.64054871 C-472.32225499 393.70442411 -472.32078163 397.76818832 -472.31208507 401.83206108 C-472.31055465 403.29636005 -472.31234884 404.76066741 -472.31794515 406.22495648 C-472.3716778 421.291063 -471.39613103 434.58952139 -460.9375 446.25 C-454.21393786 452.49223331 -445.15910474 456.55327462 -435.99391079 456.57172108 C-434.45073749 456.57840784 -434.45073749 456.57840784 -432.87638897 456.58522969 C-431.7477139 456.58504533 -430.61903884 456.58486097 -429.4561615 456.58467102 C-427.65570487 456.59018605 -427.65570487 456.59018605 -425.81887537 456.5958125 C-422.48567146 456.60493179 -419.15251676 456.60954738 -415.81930506 456.61220181 C-412.22471327 456.61610844 -408.63013569 456.62568658 -405.03555298 456.63441467 C-396.35337241 456.65416987 -387.67119068 456.66424449 -378.98899326 456.67314246 C-374.89853565 456.67752727 -370.80807934 456.68289361 -366.71762276 456.68813133 C-353.11649691 456.70514333 -339.51537187 456.71963666 -325.91423702 456.72688007 C-322.38528886 456.72878991 -318.85634071 456.73071025 -315.32739258 456.73266602 C-314.45030864 456.73314976 -313.5732247 456.7336335 -312.66956247 456.7341319 C-298.46701573 456.74242905 -284.2645533 456.76776076 -270.06204336 456.80024669 C-255.47453184 456.83334068 -240.88706313 456.85133098 -226.29951388 456.85452431 C-218.11164501 456.85668734 -209.92389905 456.86540546 -201.73606682 456.89098549 C-194.76162828 456.91272456 -187.78734253 456.92072722 -180.81287395 456.91101871 C-177.25702106 456.90648312 -173.70148316 456.90831641 -170.14567375 456.92778015 C-166.28289435 456.94874067 -162.42054547 456.93839706 -158.557724 456.92524719 C-156.88813398 456.94170106 -156.88813398 456.94170106 -155.18481487 456.95848733 C-143.68205991 456.86421754 -134.42414281 453.42352214 -126.0625 445.4375 C-118.62040729 437.44721742 -115.43540059 428.34745804 -115.58148193 417.54122925 C-115.57806423 416.59755151 -115.57464653 415.65387377 -115.57112527 414.68159974 C-115.56458348 411.54766916 -115.58646116 408.41461219 -115.60839844 405.28076172 C-115.60952771 403.02315796 -115.60889149 400.76555274 -115.60662842 398.50794983 C-115.60548349 392.399103 -115.62895737 386.29057205 -115.65692425 380.18179846 C-115.68197456 373.79033362 -115.68428277 367.39886109 -115.68902588 361.00735474 C-115.70003506 350.28608723 -115.72499873 339.56495741 -115.76074219 328.84375 C-115.79750578 317.80501886 -115.82579619 306.76631914 -115.84277344 295.72753906 C-115.84434978 294.70544693 -115.84434978 294.70544693 -115.84595796 293.66270648 C-115.85117843 290.2440607 -115.85623319 286.82541471 -115.86120558 283.40676856 C-115.90261543 255.08359963 -115.97331712 226.76055602 -116.0625 198.4375 C-117.17234398 199.37586686 -118.28033497 200.31642555 -119.38756084 201.25788021 C-120.00477526 201.78141329 -120.62198968 202.30494636 -121.25790757 202.84434408 C-123.89724755 205.17444368 -126.24853094 207.71898081 -128.60668945 210.32836914 C-129.66323402 211.4796306 -130.72054122 212.63019251 -131.77850342 213.78015137 C-132.60627415 214.68198402 -132.60627415 214.68198402 -133.45076752 215.60203552 C-184.18671772 270.62056568 -184.18671772 270.62056568 -219.30712891 275.63427734 C-224.35308573 276.40217149 -229.12186571 277.79178653 -233.98046875 279.33203125 C-235.1738662 279.70942192 -235.1738662 279.70942192 -236.39137268 280.09443665 C-237.94971293 280.59115477 -239.50733422 281.09013492 -241.06417847 281.59152222 C-244.53608066 282.70487025 -248.01817425 283.77460854 -251.515625 284.8046875 C-252.64129883 285.14612793 -253.76697266 285.48756836 -254.92675781 285.83935547 C-258.9403699 286.60495416 -262.39025916 286.53310607 -265.875 284.25 C-267.86128201 281.2183064 -268.33196812 278.09889982 -267.75009155 274.51135254 C-267.19105236 272.27176345 -266.55479228 270.06890751 -265.88671875 267.859375 C-265.6472905 267.02823181 -265.40786224 266.19708862 -265.16117859 265.34075928 C-263.82040845 260.71064059 -262.4222237 256.0978005 -261.03173828 251.48242188 C-260.45397621 249.55622229 -259.87699274 247.629789 -259.30078125 245.703125 C-259.01255493 244.74349854 -258.72432861 243.78387207 -258.42736816 242.79516602 C-256.71757112 236.99758117 -255.34002835 231.23567583 -254.23046875 225.296875 C-249.42994701 201.21688291 -235.95179318 187.6353952 -217.78379822 171.65988159 C-214.6473492 168.89322203 -211.71331636 166.12380091 -209.0065918 162.93212891 C-203.79267574 156.82832842 -198.00282203 151.26839783 -192.31341553 145.61325073 C-190.14938959 143.46211663 -187.98861522 141.30776211 -185.82861328 139.15258789 C-180.46606327 133.80332947 -175.09805954 128.45955475 -169.73022461 123.11560059 C-165.18387014 118.58905022 -160.63961925 114.06040739 -156.0980835 109.52902222 C-153.98037095 107.41774075 -151.85964452 105.30951992 -149.73876953 103.20141602 C-144.095288 97.57858917 -138.51436045 91.98727051 -133.35934448 85.9057312 C-131.70284384 84.03031286 -129.88679259 82.52224308 -127.87890625 81.03515625 C-121.25180686 75.66796748 -115.93674514 71.01990008 -114.88671875 62.19140625 C-114.36248105 48.73663251 -116.34323162 37.05844412 -125.07421875 26.4765625 C-131.73757152 19.64302587 -140.9336019 14.80512238 -150.53788632 14.3098495 C-151.41455592 14.308603 -152.29122552 14.30735651 -153.19446087 14.30607224 C-154.21191724 14.30223109 -155.2293736 14.29838995 -156.27766198 14.2944324 C-157.38854253 14.29529888 -158.49942308 14.29616537 -159.64396667 14.29705811 C-160.82949688 14.29408698 -162.01502708 14.29111586 -163.23648244 14.2880547 C-166.52374592 14.28088264 -169.81097753 14.27819602 -173.09824765 14.27745724 C-176.64508404 14.27560389 -180.19190916 14.26805512 -183.73873901 14.26132202 C-191.49299774 14.24774938 -199.24725129 14.24171561 -207.00151992 14.23731136 C-211.84516938 14.23454705 -216.68881686 14.23030935 -221.53246498 14.22580719 C-234.94834232 14.21361577 -248.36421806 14.2033163 -261.78010082 14.1999321 C-263.0676763 14.19960275 -263.0676763 14.19960275 -264.38126339 14.19926675 C-265.24167817 14.19904847 -266.10209294 14.19883019 -266.98858088 14.1986053 C-268.73205197 14.19816184 -270.47552306 14.19771527 -272.21899414 14.19726562 C-273.08381243 14.1970442 -273.94863071 14.19682277 -274.83965562 14.19659463 C-288.84880223 14.19264768 -302.8578968 14.17519625 -316.86702331 14.1519061 C-331.25680987 14.12817661 -345.64657033 14.11572952 -360.03637677 14.11456418 C-368.11295076 14.1136483 -376.18945692 14.10791802 -384.26601219 14.08974457 C-391.14418687 14.07432198 -398.02227277 14.06923581 -404.90046146 14.07748267 C-408.40753845 14.0813816 -411.91443677 14.08049689 -415.42149162 14.06642532 C-419.22985275 14.05372073 -423.03775706 14.05957525 -426.84611511 14.07000732 C-427.94584205 14.06195092 -429.04556899 14.05389452 -430.17862099 14.04559398 C-442.69226842 14.12561666 -454.04039037 17.86456227 -462.875 27.0625 Z M-74.73681641 52.98242188 C-75.51497711 53.75743042 -76.29313782 54.53243896 -77.09487915 55.33093262 C-77.94270966 56.18078735 -78.79054016 57.03064209 -79.6640625 57.90625 C-80.53388763 58.77511841 -81.40371277 59.64398682 -82.29989624 60.53918457 C-84.62370084 62.86213113 -86.94503983 65.18751029 -89.265625 67.51367188 C-91.59963619 69.85088912 -93.93905948 72.18268397 -96.27734375 74.515625 C-98.07323697 76.31217987 -99.86881952 78.10904536 -101.6640625 79.90625 C-102.49974762 80.73991089 -103.33543274 81.57357178 -104.19644165 82.43249512 C-104.99351532 83.23272095 -105.79058899 84.03294678 -106.61181641 84.85742188 C-107.30385162 85.55025269 -107.99588684 86.2430835 -108.70889282 86.95690918 C-110.67316829 89.02716277 -112.5474245 91.13311262 -114.4135437 93.29052734 C-117.76284227 97.14129445 -121.2730479 100.77741467 -124.89648438 104.36914062 C-125.53975174 105.01094772 -126.1830191 105.65275482 -126.84577942 106.31401062 C-128.22832472 107.69278115 -129.61202286 109.07039651 -130.9967804 110.44694519 C-133.19440961 112.63168582 -135.38879034 114.81964426 -137.58239746 117.00842285 C-143.02842408 122.4411559 -148.47990353 127.86840662 -153.93121338 133.2958374 C-158.54802674 137.89284891 -163.16273822 142.49195135 -167.7747345 147.09379578 C-169.92568631 149.23831509 -172.07965172 151.37977484 -174.23376465 153.52111816 C-175.56549784 154.84921531 -176.89708885 156.17745504 -178.22851562 157.50585938 C-179.11401848 158.38361275 -179.11401848 158.38361275 -180.01741028 159.27909851 C-183.67982778 162.94105763 -187.12394259 166.7429898 -190.5117588 170.659935 C-192.20813305 172.6044345 -193.96644491 174.4623126 -195.79467773 176.28320312 C-196.43481308 176.92326294 -197.07494843 177.56332275 -197.73448181 178.22277832 C-198.39831375 178.88144897 -199.06214569 179.54011963 -199.74609375 180.21875 C-200.44646255 180.91770386 -201.14683136 181.61665771 -201.86842346 182.33679199 C-204.07658458 184.53941539 -206.28822037 186.73851081 -208.5 188.9375 C-210.00999814 190.44247508 -211.5197659 191.94768135 -213.02929688 193.453125 C-216.70437641 197.11725829 -220.38257356 200.7782348 -224.0625 204.4375 C-222.6863464 207.52929136 -221.11091555 209.63388753 -218.71435547 212.01269531 C-218.03380096 212.69309875 -217.35324646 213.3735022 -216.65206909 214.07452393 C-215.91868317 214.79758728 -215.18529724 215.52065063 -214.4296875 216.265625 C-213.67785187 217.01463074 -212.92601624 217.76363647 -212.15139771 218.53533936 C-209.75142099 220.9241302 -207.34457991 223.30586897 -204.9375 225.6875 C-203.30813648 227.30683169 -201.67922466 228.92661802 -200.05078125 230.546875 C-196.05991194 234.51570505 -192.06338585 238.47876899 -188.0625 242.4375 C-182.28432871 237.6349522 -176.96082225 232.48143696 -171.65625 227.1640625 C-170.33095276 225.84020035 -170.33095276 225.84020035 -168.97888184 224.48959351 C-166.64530517 222.15686708 -164.3141665 219.82173659 -161.98382568 217.48577881 C-160.5651376 216.06514122 -159.14451953 214.64646459 -157.72314453 213.22851562 C-154.96897197 210.480558 -152.2183274 207.72911726 -149.46875 204.9765625 C-148.63001343 204.13985016 -147.79127686 203.30313782 -146.92712402 202.44107056 C-146.12939575 201.64019012 -145.33166748 200.83930969 -144.50976562 200.01416016 C-143.81806274 199.32166168 -143.12635986 198.62916321 -142.41369629 197.91567993 C-140.47191998 195.86903198 -138.62269069 193.78827215 -136.78051758 191.65353394 C-133.06950716 187.38742782 -129.13857407 183.38641743 -125.12695312 179.40429688 C-124.36664291 178.64544693 -123.6063327 177.88659698 -122.82298279 177.10475159 C-121.18506322 175.47061376 -119.54599026 173.83763132 -117.90586853 172.20570374 C-115.30499653 169.6176881 -112.70734239 167.02648042 -110.11047363 164.43444824 C-103.66272936 158.00001746 -97.20954132 151.57105521 -90.75653076 145.14190674 C-85.2942085 139.69936385 -79.83397105 134.25474532 -74.37644958 128.80738831 C-71.82662767 126.26401294 -69.27379499 123.72368668 -66.7208252 121.18347168 C-65.14641666 119.61269825 -63.57214981 118.0417828 -61.99804688 116.47070312 C-61.29550278 115.77332535 -60.59295868 115.07594757 -59.86912537 114.35743713 C-55.96645159 110.45517755 -52.24705692 106.45337614 -48.65923309 102.25908661 C-45.9576194 99.17702904 -43.04350243 96.31244269 -40.125 93.4375 C-39.53654297 92.85355469 -38.94808594 92.26960938 -38.34179688 91.66796875 C-36.91770207 90.25545195 -35.4904475 88.8461219 -34.0625 87.4375 C-35.43706776 84.35314023 -37.00935743 82.24202443 -39.39477539 79.86230469 C-40.0721022 79.18190125 -40.74942902 78.5014978 -41.44728088 77.80047607 C-42.54265419 76.71588104 -42.54265419 76.71588104 -43.66015625 75.609375 C-44.40962021 74.86036926 -45.15908417 74.11136353 -45.93125916 73.33966064 C-47.51341212 71.76052522 -49.0979913 70.18381743 -50.68481445 68.609375 C-53.12445479 66.18804112 -55.55594835 63.75875039 -57.98632812 61.328125 C-59.52296532 59.79640116 -61.06005894 58.26513505 -62.59765625 56.734375 C-63.32992935 56.00321472 -64.06220245 55.27205444 -64.81666565 54.51873779 C-65.4908403 53.85094299 -66.16501495 53.18314819 -66.85961914 52.49511719 C-67.45537247 51.90317566 -68.05112579 51.31123413 -68.66493225 50.70135498 C-71.44138881 48.19053684 -72.45266805 50.70091771 -74.73681641 52.98242188 Z M-234.0625 223.4375 C-235.6324675 228.81167793 -237.19896063 234.18685146 -238.76220703 239.56298828 C-239.29477492 241.39269528 -239.82830024 243.22212389 -240.36279297 245.05126953 C-241.12978471 247.67668654 -241.89335585 250.30307732 -242.65625 252.9296875 C-242.89686157 253.75056854 -243.13747314 254.57144958 -243.38537598 255.41720581 C-244.61339696 259.36193457 -244.61339696 259.36193457 -245.0625 263.4375 C-236.36782192 261.3708785 -227.84043973 258.91739291 -219.3125 256.25 C-217.53359375 255.69795898 -217.53359375 255.69795898 -215.71875 255.13476562 C-212.83240871 254.23860321 -209.94702863 253.33947633 -207.0625 252.4375 C-207.0625 248.65854463 -208.43131329 247.71805454 -211.0009613 245.13349915 C-211.56654251 244.58026474 -212.13212372 244.02703033 -212.71484375 243.45703125 C-213.28956924 242.88417892 -213.86429474 242.3113266 -214.45643616 241.72111511 C-215.67279054 240.51148576 -216.89273861 239.30546103 -218.1159668 238.1027832 C-219.99594817 236.25398462 -221.8650219 234.39470061 -223.73242188 232.53320312 C-224.91344099 231.36135246 -226.09506135 230.19010737 -227.27734375 229.01953125 C-227.84090073 228.46022415 -228.4044577 227.90091705 -228.98509216 227.32466125 C-231.17035578 224.65533232 -231.17035578 224.65533232 -234.0625 223.4375 Z " fill="#000000" transform="translate(490.0625,21.5625)"/>
<path d="M0 0 C0.90371476 -0.00644889 1.80742951 -0.01289778 2.73852956 -0.0195421 C3.73773101 -0.01644489 4.73693246 -0.01334769 5.76641273 -0.01015663 C6.82293938 -0.01468774 7.87946603 -0.01921886 8.96800864 -0.02388728 C12.53176387 -0.03661465 16.09536791 -0.03490555 19.65914345 -0.03325844 C22.20464209 -0.03923849 24.75013891 -0.04604281 27.29563332 -0.05361366 C33.50642559 -0.06949107 39.71716187 -0.07572437 45.92797254 -0.07683842 C50.97509346 -0.07778772 56.02220182 -0.08189211 61.06931877 -0.08823967 C75.36966605 -0.10585937 89.66998327 -0.11507745 103.97034149 -0.11357872 C104.74179164 -0.11349881 105.5132418 -0.1134189 106.30806923 -0.11333656 C107.4666527 -0.11321392 107.4666527 -0.11321392 108.6486419 -0.1130888 C121.16829266 -0.11227578 133.68782314 -0.1314155 146.20743911 -0.1596133 C159.05351131 -0.18831872 171.89952481 -0.20215487 184.74562991 -0.20042574 C191.9613532 -0.19976101 199.17695042 -0.20528959 206.39264488 -0.22678185 C213.17731111 -0.24686023 219.96166638 -0.24634397 226.74636078 -0.23174858 C229.24092496 -0.22964935 231.7355055 -0.2344271 234.2300415 -0.2464695 C237.62700496 -0.26181011 241.02303512 -0.25268735 244.41997719 -0.23720741 C245.41471719 -0.24749454 246.40945719 -0.25778167 247.43434083 -0.26838052 C254.09961177 -0.20093372 254.09961177 -0.20093372 257.30144119 2.16317368 C259.91831195 6.02574651 260.11816988 8.56097184 259.7201786 13.25726891 C257.58338575 16.64666446 256.5427019 17.98309447 252.7201786 19.25726891 C251.27753468 19.35014077 249.83099179 19.38813309 248.38536549 19.39148998 C247.04955725 19.39817675 247.04955725 19.39817675 245.68676299 19.4049986 C244.70740242 19.40481424 243.72804184 19.40462988 242.71900368 19.40443993 C241.67936795 19.40811661 240.63973221 19.4117933 239.56859237 19.41558141 C236.06792803 19.42663749 232.56729335 19.43046533 229.06661415 19.43427086 C226.56362246 19.44053396 224.06063171 19.44718063 221.55764198 19.45418358 C214.03488611 19.47342322 206.51213545 19.48401284 198.98936126 19.49291137 C195.44716203 19.49729461 191.90496431 19.50266128 188.36276627 19.50790024 C176.58886176 19.52491088 164.81495819 19.53940575 153.04104328 19.54664898 C149.98592757 19.54855888 146.93081187 19.55047921 143.87569618 19.55243492 C143.11635978 19.55291866 142.35702338 19.5534024 141.57467679 19.5539008 C129.26984128 19.56220377 116.9651029 19.58754588 104.66030981 19.6200156 C92.02890529 19.65307566 79.39755016 19.67109672 66.76610214 19.67429322 C59.6732813 19.67645915 52.58060217 19.6852199 45.48782349 19.71075439 C38.81723656 19.73471353 32.14694896 19.73829376 25.47631264 19.72799301 C23.02612206 19.72749603 20.57591917 19.73386395 18.12576675 19.74754906 C14.78430382 19.76517044 11.44376709 19.75820917 8.10230446 19.7450161 C7.12963605 19.75598534 6.15696764 19.76695459 5.15482444 19.77825624 C-0.61615354 19.72313354 -3.87380136 19.08567012 -8.2798214 15.25726891 C-9.50529396 12.61172083 -9.54410831 10.14718889 -9.2798214 7.25726891 C-7.12211011 2.53085371 -5.2882991 0.00950487 0 0 Z " fill="#000000" transform="translate(71.27982139587402,395.74273109436035)"/>
<path d="M0 0 C1.33515643 -0.00679667 1.33515643 -0.00679667 2.69728571 -0.01373065 C5.68590265 -0.02641142 8.67433822 -0.02475191 11.66297913 -0.02310181 C13.80321488 -0.0290847 15.94344846 -0.03588969 18.0836792 -0.04345703 C23.90178583 -0.06114709 29.71983366 -0.06581364 35.53796458 -0.0670886 C40.39154642 -0.06898605 45.2451145 -0.07634169 50.09869105 -0.08343279 C61.54688529 -0.09972525 72.99504806 -0.10460091 84.44325256 -0.10317993 C96.26189538 -0.10197779 108.08035579 -0.12309213 119.89895242 -0.15466726 C130.03916343 -0.18079525 140.17931473 -0.19154871 150.31955916 -0.19026911 C156.37890599 -0.18975852 162.43809072 -0.19549558 168.4974041 -0.21662521 C174.19457996 -0.23594936 179.89143807 -0.23617192 185.58862495 -0.22159195 C187.68124478 -0.21949561 189.7738842 -0.22425354 191.86647034 -0.23631287 C194.72003203 -0.25169442 197.57248838 -0.24250418 200.42602539 -0.22705078 C201.25695943 -0.23733791 202.08789348 -0.24762503 202.94400734 -0.25822389 C206.92679441 -0.21045555 208.83175048 -0.01522951 212.27887821 2.17552757 C214.92261081 4.94402278 215.1694829 6.60851972 215.41712952 10.30258179 C215.20475889 13.26987134 214.14459394 14.99903123 212.27650452 17.26742554 C208.38803483 19.85973866 205.14551681 19.55148153 200.63529968 19.53485107 C199.29529956 19.54164774 199.29529956 19.54164774 197.92822874 19.54858172 C194.92268665 19.56128295 191.91732444 19.55960167 188.91175842 19.55795288 C186.76181809 19.56393455 184.61187991 19.57073926 182.46194458 19.57830811 C176.61278806 19.59601195 170.76369002 19.60066533 164.9145093 19.60193968 C160.03612438 19.60383611 155.15775318 19.6111907 150.27937353 19.61828387 C138.77222526 19.63458206 127.26510831 19.63945151 115.75794983 19.63803101 C103.87741218 19.63682916 91.99705608 19.65793634 80.11656439 19.68951833 C69.9254186 19.71564674 59.73433222 19.72639975 49.54315317 19.72512019 C43.45249264 19.72460955 37.36199337 19.73034903 31.27136612 19.75147629 C25.54383535 19.77080079 19.81662064 19.77102274 14.0890789 19.75644302 C11.98517204 19.75434664 9.8812457 19.75910492 7.77737236 19.77116394 C4.90843243 19.78654494 2.04059201 19.77735554 -0.82832336 19.76190186 C-1.66383047 19.77218898 -2.49933758 19.78247611 -3.36016309 19.79307497 C-7.35349114 19.7454349 -9.27241675 19.55383367 -12.72866249 17.3593235 C-15.36877734 14.59074543 -15.61949874 12.92553265 -15.86021423 9.23226929 C-15.65094762 6.22480916 -14.65991265 4.53770773 -12.72349548 2.26742554 C-8.88215304 -0.46672275 -4.51645694 -0.01678946 0 0 Z " fill="#000000" transform="translate(77.72349548339844,101.73257446289063)"/>
<path d="M0 0 C1.02125975 -0.00657338 1.02125975 -0.00657338 2.063151 -0.01327956 C4.35546808 -0.02668532 6.6477467 -0.03285033 8.94009399 -0.03897095 C10.57919998 -0.0468704 12.21830422 -0.05513925 13.85740662 -0.06375122 C19.24904719 -0.0899853 24.64069561 -0.10527829 30.03237915 -0.11953735 C31.88653188 -0.1248961 33.74068456 -0.1302736 35.59483719 -0.13566971 C43.30513269 -0.15729873 51.01542608 -0.17603714 58.72574425 -0.1872921 C69.78671032 -0.20354292 80.84732575 -0.23674777 91.90815961 -0.29369295 C99.67974814 -0.33234445 107.45124268 -0.35191898 115.22292483 -0.35721266 C119.86775337 -0.36087217 124.51220806 -0.37295687 129.15693283 -0.4053154 C133.52531436 -0.43531271 137.89309418 -0.44173798 142.26155663 -0.42993164 C143.86600801 -0.42971022 145.47048664 -0.43807216 147.07484245 -0.45558548 C149.26359722 -0.47818032 151.45015198 -0.47003084 153.63891602 -0.45410156 C154.86414663 -0.45741171 156.08937725 -0.46072186 157.35173607 -0.46413231 C160.44644165 0.15390015 160.44644165 0.15390015 162.83870888 2.54712486 C165.24587088 6.45009339 165.27773244 9.70649442 164.44644165 14.15390015 C162.143615 17.44365251 160.29886039 18.44761513 156.44644165 19.15390015 C154.29133997 19.24972537 152.13349652 19.2888089 149.97627258 19.29434204 C149.32850902 19.29731316 148.68074546 19.30028429 148.01335269 19.30334544 C145.84479564 19.31201063 143.67629393 19.31353883 141.50772095 19.31503296 C139.95200483 19.31966266 138.39628984 19.32468753 136.84057617 19.33007812 C132.6152716 19.34318907 128.3899829 19.34964448 124.16466117 19.35408878 C121.52395969 19.35702148 118.88326254 19.36112666 116.24256325 19.36559296 C107.97776773 19.37926416 99.71298212 19.38893279 91.44817609 19.39279485 C81.91248832 19.39727547 72.3769439 19.41482515 62.84129971 19.44379544 C55.46707004 19.46542039 48.09288068 19.47549955 40.71861964 19.47683597 C36.31583793 19.47788337 31.91319103 19.48377743 27.51044273 19.50165558 C23.36784069 19.51815044 19.22547462 19.52028495 15.08285141 19.51151657 C13.56514033 19.51074696 12.04741649 19.51507885 10.52973747 19.52497482 C8.45206655 19.53772431 6.3752277 19.53180224 4.29756165 19.52139282 C2.55625237 19.52359266 2.55625237 19.52359266 0.77976513 19.52583694 C-3.26219655 19.07482933 -5.92595142 17.9785906 -9.55355835 16.15390015 C-12.00656908 13.06097358 -11.9460962 10.00077105 -11.55355835 6.15390015 C-8.61342513 0.13999129 -6.45220667 0.02936245 0 0 Z " fill="#000000" transform="translate(73.55355834960938,175.84609985351563)"/>
<path d="M0 0 C0.96763671 -0.00573832 0.96763671 -0.00573832 1.95482165 -0.01159257 C4.11429711 -0.0219033 6.27350573 -0.01793418 8.43299866 -0.01396179 C9.98210903 -0.01830934 11.53121725 -0.02349263 13.08032227 -0.02944946 C17.28692274 -0.04284604 21.49343341 -0.04341741 25.70005107 -0.04088616 C29.21155667 -0.03981692 32.72304406 -0.04469862 36.23454577 -0.04949158 C44.518484 -0.060589 52.8023769 -0.06102283 61.08631897 -0.05497742 C69.63305535 -0.04893615 78.17962716 -0.06125195 86.72633547 -0.08254749 C94.06402383 -0.10015847 101.40165978 -0.10616565 108.7393685 -0.10290974 C113.12195501 -0.10109597 117.50442412 -0.10374244 121.8869915 -0.11762428 C126.00826243 -0.13018988 130.12927665 -0.12827065 134.25054359 -0.11521339 C135.76263897 -0.1128453 137.27475234 -0.11559065 138.78682709 -0.12383652 C140.85207963 -0.13428651 142.91646798 -0.12621852 144.98168945 -0.11352539 C146.13703155 -0.11369313 147.29237364 -0.11386087 148.4827261 -0.1140337 C151.9397758 0.3077192 153.78491688 1.17931161 156.55433655 3.26069641 C158.66646158 6.42888397 158.88590119 8.39288893 159.1129303 12.12788391 C158.21889575 15.54147035 156.22267815 17.03354752 153.55433655 19.26069641 C150.4386673 19.8871088 150.4386673 19.8871088 146.87452698 19.8888855 C145.88723264 19.89952708 145.88723264 19.89952708 144.87999296 19.91038364 C142.68164822 19.9279405 140.48507719 19.90987372 138.28675842 19.89179993 C136.7079386 19.89693971 135.12912451 19.90422143 133.55032349 19.91348267 C129.26714647 19.93199771 124.98459192 19.91905775 120.70144081 19.89939237 C116.21811322 19.88300527 111.73482503 19.89181884 107.2514801 19.89691162 C99.72261107 19.90143252 92.19399049 19.88556305 84.66517639 19.85762024 C75.96213436 19.82556829 67.25954042 19.82558404 58.55646658 19.84283501 C50.18269834 19.85870152 41.80909431 19.85196576 33.43533325 19.83489799 C29.87241238 19.82802729 26.30962312 19.82906013 22.7467041 19.83644295 C18.55061738 19.84410694 14.35504028 19.83197632 10.15904045 19.80459404 C8.61954702 19.79771026 7.08000599 19.79761221 5.54051399 19.80480957 C3.43782363 19.81350685 1.33670513 19.79754708 -0.76585388 19.77536011 C-1.94202019 19.77255319 -3.11818649 19.76974627 -4.3299942 19.76685429 C-8.08568373 19.15672154 -9.75404168 17.89849705 -12.44566345 15.26069641 C-14.01628714 11.46250547 -13.80756652 8.13688279 -12.25816345 4.38569641 C-8.69013994 0.20249643 -5.34833769 0.0095063 0 0 Z " fill="#000000" transform="translate(75.44566345214844,321.7393035888672)"/>
<path d="M0 0 C1.0402533 -0.00708481 2.08050659 -0.01416962 3.15228271 -0.02146912 C4.29313324 -0.0189917 5.43398376 -0.01651428 6.60940552 -0.01396179 C8.41217957 -0.02162819 8.41217957 -0.02162819 10.25137329 -0.02944946 C13.54902966 -0.04098037 16.84643493 -0.04341695 20.14409399 -0.04088616 C22.89752632 -0.03981689 25.65093544 -0.04469881 28.4043628 -0.04949158 C34.90143895 -0.06059076 41.39845728 -0.06102222 47.89553833 -0.05497742 C54.59558257 -0.04893952 61.29541671 -0.06124285 67.99542511 -0.08254749 C73.74924523 -0.10016996 79.50299852 -0.10616374 85.25684464 -0.10290974 C88.69265905 -0.10109738 92.12832366 -0.10372796 95.56411362 -0.11762428 C99.39700291 -0.13254611 103.22962531 -0.12322679 107.06253052 -0.11161804 C108.19933258 -0.11926178 109.33613464 -0.12690552 110.50738525 -0.13478088 C112.07622467 -0.12425941 112.07622467 -0.12425941 113.67675781 -0.11352539 C114.58267103 -0.11369313 115.48858425 -0.11386087 116.42194939 -0.1140337 C119.56328264 0.34879011 121.42504142 1.37529247 123.96536255 3.26069641 C125.95095292 7.56280887 126.19634018 9.51913665 124.77786255 14.07319641 C122.96536255 17.26069641 122.96536255 17.26069641 119.96536255 19.26069641 C117.6580143 19.51796532 117.6580143 19.51796532 114.89276123 19.52812195 C113.31976006 19.5409169 113.31976006 19.5409169 111.71498108 19.55397034 C110.56477982 19.55306396 109.41457855 19.55215759 108.22952271 19.55122375 C107.01791977 19.55794098 105.80631683 19.5646582 104.55799866 19.57157898 C101.23348991 19.58733912 97.90923095 19.59393502 94.58470201 19.59521055 C91.80890006 19.5971098 89.03312207 19.60446769 86.25732934 19.61155474 C79.70752077 19.62784254 73.15776717 19.63272337 66.60794067 19.63130188 C59.85331336 19.63010055 53.09900562 19.65119945 46.34445918 19.68278921 C40.54392864 19.70894967 34.74350249 19.71966927 28.94291341 19.71839106 C25.47909717 19.71788132 22.01556485 19.72357059 18.5518074 19.74474716 C14.68774202 19.76772581 10.82411406 19.75860999 6.95999146 19.74653625 C5.81383865 19.75777527 4.66768585 19.76901428 3.48680115 19.78059387 C-4.26624719 19.71890393 -4.26624719 19.71890393 -8.23352051 17.35313416 C-10.99218246 14.14827374 -11.33146985 11.40810462 -11.03463745 7.26069641 C-8.67588986 1.83557694 -5.82092172 0.01320165 0 0 Z " fill="#000000" transform="translate(73.03463745117188,248.7393035888672)"/>
<path d="M0 0 C2.75329021 1.79562405 4.52627461 3.05254922 6 6 C6.55313062 9.45706635 6.76467274 11.91861315 4.68139648 14.86474609 C4.10462158 15.49461426 3.52784668 16.12448242 2.93359375 16.7734375 C2.29599121 17.47194824 1.65838867 18.17045898 1.00146484 18.89013672 C-2.09098247 22.15006959 -5.23968348 25.3435259 -8.4375 28.5 C-9.12126709 29.17998047 -9.80503418 29.85996094 -10.50952148 30.56054688 C-13.39737773 33.43225143 -16.29123075 36.29788438 -19.18457031 39.1640625 C-21.31265725 41.27392787 -23.43762917 43.38689645 -25.5625 45.5 C-26.20437256 46.13357422 -26.84624512 46.76714844 -27.50756836 47.41992188 C-31.23527961 51.12769364 -34.74339906 54.95680346 -38.17974854 58.93484497 C-43.80270844 65.31433932 -49.8740181 71.30254714 -55.84179688 77.35668945 C-57.53512573 79.08184166 -59.22034043 80.81499478 -60.89746094 82.5559082 C-63.3370484 85.08670633 -65.80185295 87.59033266 -68.2734375 90.08984375 C-69.01435638 90.86891586 -69.75527527 91.64798798 -70.51864624 92.45066833 C-74.83141112 96.74766403 -77.88767641 98.87408538 -84.04507446 99.23634338 C-87.23532198 98.85065407 -88.88813933 97.3098476 -91 95 C-92.63023814 91.73952371 -92.4673535 89.62198965 -92 86 C-90.0794598 82.9416055 -87.56021887 80.53014919 -85 78 C-84.03597562 77.03563855 -83.07246572 76.07076262 -82.109375 75.10546875 C-80.5897172 73.58365914 -79.06746019 72.06583747 -77.52832031 70.5637207 C-74.93037975 68.01381002 -72.47630296 65.4112378 -70.1262207 62.63061523 C-64.69063063 56.39457411 -58.7699428 50.62609476 -52.91796875 44.78515625 C-51.65466468 43.52117751 -50.39150899 42.25705045 -49.12849426 40.99278259 C-46.49686939 38.35969164 -43.86346472 35.72839756 -41.22875977 33.09838867 C-37.84810795 29.72346886 -34.47201305 26.34403157 -31.09720898 22.96326542 C-28.49714806 20.35959938 -25.89472067 17.75830925 -23.29155922 15.15774345 C-22.04484937 13.91170119 -20.79888331 12.66491426 -19.55367088 11.41737556 C-17.82098001 9.68215521 -16.08513389 7.95015528 -14.34838867 6.21899414 C-13.83358444 5.70216568 -13.31878021 5.18533722 -12.78837585 4.65284729 C-8.43536294 0.32582695 -6.24046054 -0.52885259 0 0 Z " fill="#000000" transform="translate(421,101)"/>
<path d="M0 0 C2.76492177 2.11781242 4.42280261 3.8071254 5.9375 6.9375 C6.06050918 10.99680296 4.88455011 13.94236671 2.27319336 17.06469727 C0.06245507 19.36722033 -2.20085722 21.59830092 -4.5 23.8125 C-5.28503906 24.58787109 -6.07007813 25.36324219 -6.87890625 26.16210938 C-13.73240108 32.8804152 -13.73240108 32.8804152 -18.3125 33.3125 C-22.69433524 32.94115803 -24.15956566 32.34168746 -27 29 C-27.99762864 26.25797977 -28.45757363 23.88939753 -28 21 C-25.09880537 15.78657506 -21.11192568 11.84143435 -16.875 7.6875 C-15.92560547 6.73907227 -15.92560547 6.73907227 -14.95703125 5.77148438 C-10.22292081 1.08260429 -7.04536268 -1.2147177 0 0 Z " fill="#000000" transform="translate(323,201)"/>
</svg>
