<?xml version="1.0" encoding="UTF-8"?>
<svg version="1.1" xmlns="http://www.w3.org/2000/svg" width="512" height="512">
<path d="M0 0 C0.93220011 -0.00367669 1.86440023 -0.00735338 2.82484883 -0.01114148 C5.95047345 -0.0221597 9.07606481 -0.02601908 12.20170593 -0.02983093 C14.44246526 -0.0360972 16.68322355 -0.04274415 18.92398071 -0.04974365 C26.28697487 -0.07077454 33.64996921 -0.08114808 41.01298523 -0.09111023 C43.55130207 -0.09515875 46.08961879 -0.0992757 48.62793541 -0.10346031 C59.1923522 -0.1203304 69.75676686 -0.13496274 80.32119465 -0.14220905 C83.06066197 -0.14411871 85.80012927 -0.14603907 88.53959656 -0.147995 C89.22041348 -0.14847874 89.9012304 -0.14896248 90.60267814 -0.14946087 C101.61056457 -0.1577461 112.61834179 -0.18305741 123.62618063 -0.21557567 C134.94914674 -0.24874965 146.27203809 -0.26633528 157.59506005 -0.26985329 C163.94370866 -0.27219741 170.29218476 -0.28107426 176.64078712 -0.30631447 C182.6219803 -0.32970897 188.6028888 -0.33378276 194.58411598 -0.32355309 C196.76887462 -0.32306031 198.95364781 -0.3293038 201.13836288 -0.34310913 C216.57784994 -0.43514215 231.23147782 0.41781264 245.14970398 7.89717102 C245.80688416 8.23716125 246.46406433 8.57715149 247.14115906 8.92744446 C252.90999515 12.01189886 257.8694317 15.83125678 262.77470398 20.14717102 C263.57778992 20.7530304 264.38087585 21.35888977 265.20829773 21.98310852 C279.25415247 33.82694951 287.65491824 52.38240046 290.77470398 70.14717102 C291.04352701 74.24848353 291.05192161 78.35045127 291.08720398 82.45967102 C291.13070984 84.08485657 291.13070984 84.08485657 291.1750946 85.74287415 C291.31296915 103.825651 283.98172993 120.82543475 278.08720398 137.64717102 C277.2346024 140.09663333 276.38247812 142.54626182 275.5308075 144.99604797 C269.4668667 162.41345943 263.31477322 179.7996935 257.1348114 197.17622375 C253.41610423 207.63980747 249.73232651 218.11457052 246.09892273 228.60810852 C245.70874969 229.73355072 245.31857666 230.85899292 244.9165802 232.01853943 C242.96630277 237.65189455 241.03068056 243.28966908 239.1204071 248.9367218 C232.95572091 267.08828843 232.95572091 267.08828843 229.23173523 275.24092102 C220.38678098 295.25345509 220.6690456 315.07260672 221.00688171 336.60444641 C221.02024063 337.85845749 221.03359955 339.11246857 221.04736328 340.40447998 C221.07806203 342.7602033 221.13154572 345.1157952 221.21310425 347.4703064 C221.40271409 360.84318651 216.30155499 371.37120437 207.12236023 380.85420227 C203.88660762 383.86154882 200.51084866 385.88284487 196.54423523 387.81904602 C195.64938416 388.25829407 194.75453308 388.69754211 193.83256531 389.15010071 C193.15347107 389.47913391 192.47437683 389.80816711 191.77470398 390.14717102 C191.76068542 391.28762878 191.76068542 391.28762878 191.74638367 392.4511261 C191.69212002 395.95458936 191.60858333 399.45679654 191.52470398 402.95967102 C191.51052429 404.15527649 191.4963446 405.35088196 191.48173523 406.5827179 C191.09566959 420.75132672 186.4594334 432.06403876 176.08720398 441.89717102 C168.41683594 448.17022396 160.57235696 451.44140211 150.77470398 452.14717102 C150.80088806 452.83641663 150.82707214 453.52566223 150.85404968 454.23579407 C151.39829784 470.73271347 151.79757793 484.05675897 140.57548523 497.22529602 C132.95705439 505.35602915 122.9060681 512.00634471 111.46611023 512.42060852 C96.6157812 512.83767912 84.97445693 510.64124848 73.77470398 500.14717102 C66.96603583 493.70438925 61.0544916 483.92224328 60.66117859 474.39814758 C60.66641541 473.37173157 60.67165222 472.34531555 60.67704773 471.28779602 C60.68027039 470.17275696 60.68349304 469.0577179 60.68681335 467.90888977 C60.69519226 466.75002258 60.70357117 465.5911554 60.71220398 464.39717102 C60.7167157 463.22283508 60.72122742 462.04849915 60.72587585 460.83857727 C60.73765304 457.9413903 60.75410072 455.04430648 60.77470398 452.14717102 C58.94745789 451.94994446 58.94745789 451.94994446 57.08329773 451.74873352 C45.76848803 450.31975645 36.32749525 444.01477761 29.18876648 435.24092102 C23.97902233 427.5270457 20.76439597 420.12069983 20.45829773 410.85029602 C20.4164032 409.64502258 20.37450867 408.43974915 20.3313446 407.19795227 C20.2920282 405.94369446 20.25271179 404.68943665 20.21220398 403.39717102 C20.16902039 402.12744446 20.12583679 400.8577179 20.0813446 399.54951477 C19.97530676 396.41550737 19.8732434 393.28142169 19.77470398 390.14717102 C19.11373718 389.83481506 18.45277039 389.52245911 17.77177429 389.20063782 C5.46954039 383.24645564 -2.90020315 375.112852 -7.81123352 362.22261047 C-9.688826 356.49259409 -9.3853361 351.15140109 -9.10420227 345.19013977 C-8.15870512 311.04836111 -12.76601871 284.25422001 -25.74873352 252.34492493 C-29.37478 243.37984851 -32.51660232 234.24677033 -35.69026184 225.11421204 C-37.06760535 221.16590312 -38.46944258 217.22648919 -39.87135315 213.28684998 C-45.59809521 197.18739384 -51.17472754 181.03606701 -56.74311829 164.88130188 C-60.17128343 154.94030227 -63.61452165 145.00610507 -67.14326477 135.10029602 C-67.59849014 133.8192524 -67.59849014 133.8192524 -68.06291199 132.5123291 C-69.45181005 128.60462181 -70.84681567 124.69937533 -72.25556946 120.79878235 C-76.72755627 108.31872387 -79.78817421 96.61842831 -79.66279602 83.27217102 C-79.6525238 81.57326721 -79.6525238 81.57326721 -79.64204407 79.84004211 C-79.47357999 71.0231246 -78.33402891 63.45076017 -75.22529602 55.14717102 C-74.87467102 54.12107727 -74.52404602 53.09498352 -74.16279602 52.03779602 C-71.11428155 43.86608361 -66.41616058 37.06521174 -61.22529602 30.14717102 C-60.75607727 29.49103821 -60.28685852 28.8349054 -59.80342102 28.15888977 C-46.11441745 10.45613515 -21.91978891 -0.00464804 0 0 Z M-31.22529602 44.14717102 C-31.8517804 44.69244446 -32.47826477 45.2377179 -33.12373352 45.79951477 C-43.09808335 55.05518874 -48.21074965 67.5586796 -48.73750305 81.05366516 C-48.75409973 81.84764709 -48.77069641 82.64162903 -48.78779602 83.45967102 C-48.8147052 84.18082092 -48.84161438 84.90197083 -48.86933899 85.64497375 C-48.81377886 93.86876893 -45.85267161 101.45758122 -43.22529602 109.14717102 C-42.93260834 110.01161835 -42.63992065 110.87606567 -42.33836365 111.76670837 C-39.91859752 118.90558979 -37.45037825 126.02731543 -34.97529602 133.14717102 C-34.17514197 135.45445442 -33.37501221 137.76174624 -32.5749054 140.06904602 C-27.01194886 156.09249021 -21.3701949 172.08723047 -15.68641663 188.06816101 C-9.13773885 206.48384717 -2.72928913 224.94652415 3.62431335 243.43037415 C3.98306549 244.47166977 4.34181763 245.51296539 4.71144104 246.58581543 C5.36644901 248.48716093 6.01992559 250.38903535 6.67121887 252.29165649 C9.89260854 261.63619138 13.35470768 270.86432392 16.77470398 280.14717102 C41.19470398 280.14717102 65.61470398 280.14717102 90.77470398 280.14717102 C98.5300686 219.86574239 98.5300686 219.86574239 80.49598694 165.08940125 C73.96358953 158.51991151 66.47124793 153.0225652 58.41996765 148.46430969 C55.10008463 146.52530777 53.32141518 144.77030943 51.77470398 141.14717102 C51.37626648 138.20967102 51.37626648 138.20967102 51.39970398 135.14717102 C51.38810242 133.63123352 51.38810242 133.63123352 51.37626648 132.08467102 C51.9853429 127.59422523 53.50782101 125.11596388 57.09892273 122.36982727 C60.11190419 120.99309268 62.28187178 120.64965134 65.58720398 120.58467102 C67.05093445 120.52086243 67.05093445 120.52086243 68.54423523 120.45576477 C78.29909783 122.54356487 86.01463673 133.16011585 92.77470398 140.02217102 C93.94220277 141.19972048 95.11016791 142.37680778 96.27861023 143.55342102 C99.1160467 146.4127037 101.94709692 149.27816882 104.77470398 152.14717102 C108.9194155 150.52365507 111.64181775 147.49967763 114.67704773 144.36982727 C115.23662674 143.80267502 115.79620575 143.23552277 116.3727417 142.65118408 C118.7590769 140.23225248 121.13341749 137.80167073 123.50883484 135.37202454 C125.24825872 133.59632785 126.99372888 131.82673339 128.73954773 130.05732727 C129.53509315 129.23688683 129.53509315 129.23688683 130.34671021 128.39987183 C134.08060882 124.61734287 137.33319056 121.47833375 142.71220398 120.74873352 C143.72282898 120.7564679 144.73345398 120.76420227 145.77470398 120.77217102 C146.78532898 120.76443665 147.79595398 120.75670227 148.83720398 120.74873352 C153.32764977 121.35780994 155.80591112 122.88028805 158.55204773 126.47138977 C159.92878232 129.48437123 160.27222366 131.65433883 160.33720398 134.95967102 C160.37974304 135.93549133 160.4222821 136.91131165 160.46611023 137.91670227 C158.78233042 145.78385426 152.16296625 150.71818551 146.04252625 155.352005 C133.01028901 165.8675538 120.23264322 176.58014079 118.07499695 194.02656555 C117.01529049 205.95010053 117.70988838 217.92388962 118.5087738 229.84217834 C118.91330909 236.53867563 119.05853058 243.24571505 119.24973297 249.95104218 C119.56519035 260.03743759 120.19741743 270.05729064 120.77470398 280.14717102 C145.19470398 280.14717102 169.61470398 280.14717102 194.77470398 280.14717102 C202.91633638 257.47831219 210.97653669 234.78967538 218.83720398 212.02217102 C219.40827881 210.36838943 219.40827881 210.36838943 219.9908905 208.68119812 C221.51150478 204.27736052 223.03202522 199.87349054 224.55232239 195.46954346 C227.98065678 185.54229969 231.43122314 175.6229549 234.89970398 165.70967102 C235.17424408 164.92445068 235.44878418 164.13923035 235.73164368 163.33021545 C239.1613379 153.52607758 242.62974418 143.73626836 246.12626648 133.95576477 C246.49329681 132.92802444 246.86032715 131.90028412 247.23847961 130.84140015 C249.02824382 125.83025296 250.82176448 120.82052088 252.62284851 115.81343079 C253.27257058 113.99764616 253.92215437 112.18181205 254.57157898 110.36592102 C254.86674408 109.55001999 255.16190918 108.73411896 255.46601868 107.89349365 C260.89692159 92.66173918 262.61793623 76.29136548 255.77470398 61.14717102 C248.12421975 46.32188035 236.67135182 37.17629821 221.02470398 31.90888977 C210.29196704 29.39340455 199.08647655 29.99861086 188.13505554 30.00190735 C186.14646848 29.99891166 184.15788199 29.99550819 182.16929626 29.99172974 C176.7889516 29.98292731 171.40862285 29.98055321 166.02827168 29.97991395 C162.66082661 29.97920132 159.29338554 29.97706296 155.92594147 29.97441673 C144.16100814 29.96517576 132.39608612 29.96108028 120.63114929 29.96186829 C109.69193757 29.96246875 98.75277522 29.95191982 87.81357598 29.93612462 C78.39836912 29.92301794 68.98317832 29.9176857 59.56796241 29.9183237 C53.95503739 29.91857776 48.34215628 29.91577724 42.72924042 29.90514565 C37.44652358 29.89541187 32.16389216 29.89542145 26.88117218 29.90266228 C24.95197422 29.90370158 23.0227708 29.90138453 21.09358215 29.89530182 C1.70581348 29.83817362 -16.02851648 30.56394915 -31.22529602 44.14717102 Z M20.77470398 310.14717102 C18.08129068 332.33101872 18.08129068 332.33101872 25.21220398 356.95967102 C30.62601446 361.58121655 34.68213819 362.26943135 41.64381409 362.28088379 C43.40592224 362.28728127 43.40592224 362.28728127 45.20362854 362.29380798 C46.48375824 362.2933548 47.76388794 362.29290161 49.08280945 362.29243469 C50.45148307 362.29542854 51.82015584 362.29883159 53.18882751 362.3026123 C56.89963142 362.31143337 60.61041226 362.31378962 64.32122564 362.31442809 C66.64148669 362.31513965 68.9617419 362.31727596 71.2820015 362.31992531 C79.38194907 362.32917232 87.48188021 362.33326098 95.58183289 362.33247375 C103.12365814 362.33187307 110.66541185 362.34242475 118.207219 362.35821742 C124.68975691 362.37130664 131.17227146 362.37665707 137.65482247 362.37601835 C141.52323748 362.37576377 145.39158888 362.37859248 149.25999069 362.3891964 C152.8994387 362.39890071 156.53876257 362.39894063 160.17821503 362.39167976 C162.14372358 362.39014111 164.10923219 362.39846428 166.07472229 362.40711975 C176.61037668 362.55264758 176.61037668 362.55264758 185.58720398 357.70967102 C196.59591301 344.81375472 190.77470398 326.11028359 190.77470398 310.14717102 C134.67470398 310.14717102 78.57470398 310.14717102 20.77470398 310.14717102 Z M50.77470398 392.14717102 C49.85946151 405.57048354 49.85946151 405.57048354 55.21220398 416.95967102 C61.1672916 422.04328241 65.97769513 422.29722271 73.57499695 422.29243469 C74.34476868 422.2957933 75.11454041 422.29915192 75.90763855 422.3026123 C78.44407276 422.31208568 80.9804407 422.31406358 83.51689148 422.31513977 C85.28659594 422.3183548 87.05630013 422.32171905 88.82600403 422.32522583 C92.53303137 422.33120801 96.24003543 422.33306666 99.94706726 422.33247375 C104.68701694 422.33237217 109.42681671 422.3460247 114.16673088 422.36324596 C117.82139262 422.37438788 121.47601836 422.37639229 125.13069534 422.37586403 C126.87771751 422.37704082 128.6247407 422.38144568 130.37174606 422.3891964 C132.81981024 422.39904087 135.2675521 422.3961008 137.71562195 422.39009094 C138.43065887 422.39571045 139.1456958 422.40132996 139.88240051 422.40711975 C145.92207829 422.36961825 150.94543903 421.73253398 155.58720398 417.70967102 C162.5040462 409.60708441 160.77470398 403.41829801 160.77470398 392.14717102 C124.47470398 392.14717102 88.17470398 392.14717102 50.77470398 392.14717102 Z M90.77470398 452.14717102 C89.85946151 465.57048354 89.85946151 465.57048354 95.21220398 476.95967102 C99.82562781 480.89795965 102.3648881 481.59262982 108.26689148 481.46357727 C111.96692311 480.99675085 114.03284095 479.62153522 116.77470398 477.14717102 C122.41683597 469.55947627 120.77470398 461.60772002 120.77470398 452.14717102 C110.87470398 452.14717102 100.97470398 452.14717102 90.77470398 452.14717102 Z " fill="#2790FF" transform="translate(150.2252960205078,-0.1471710205078125)"/>
</svg>
