<?xml version="1.0" encoding="UTF-8"?>
<svg version="1.1" xmlns="http://www.w3.org/2000/svg" width="512" height="512">
<path d="M0 0 C0.65274902 0.27344238 1.30549805 0.54688477 1.97802734 0.82861328 C13.15433699 5.64415562 22.56997775 12.38518384 32 20 C32.96808594 20.75925781 33.93617188 21.51851562 34.93359375 22.30078125 C39.56532226 26.11732554 42.22388184 28.79105472 43 35 C43.70165985 46.05114264 40.01658181 53.97512728 34 63 C34 69.81295557 36.64498098 75.00087488 39.625 81.046875 C42.5858979 87.40607617 42.84023753 93.68996238 41 100.4375 C36.49012397 112.51232938 25.39775455 118.04690456 14.3671875 123.17578125 C1.37056434 129.0931654 -11.72726501 133.28139919 -25.9375 128.375 C-33.20100706 125.24323069 -39.60157015 121.23047564 -45.625 116.125 C-48.890526 113.5681385 -51.24257086 112.07473262 -55.58203125 112.5078125 C-61.47929897 113.70822564 -67.30056102 115.05834843 -73 117 C-73.93102539 117.27521484 -74.86205078 117.55042969 -75.82128906 117.83398438 C-81.65153685 119.8915281 -81.65153685 119.8915281 -85.33032227 124.60522461 C-86.17194222 127.78043879 -86.70103002 130.86813968 -87.125 134.125 C-87.30546875 135.22199219 -87.4859375 136.31898438 -87.671875 137.44921875 C-88.00484838 139.47439266 -88.31726013 141.50313502 -88.60205078 143.53564453 C-89 146 -89 146 -90 149 C-89.01 148.67 -88.02 148.34 -87 148 C-78.96617396 147.1611266 -71.61532665 148.65762286 -65.1875 153.6875 C-58.94071764 159.62991477 -57.29763473 166.02257634 -56.90625 174.515625 C-57.46808071 195.39699986 -69.2050409 216.3798526 -81.98925781 232.39672852 C-84.41309161 235.4664616 -84.41309161 235.4664616 -84.83398438 239.21557617 C-83.74406355 242.85449509 -82.13461665 246.15923757 -80.4296875 249.5390625 C-80.0703714 250.26056488 -79.7110553 250.98206726 -79.34085083 251.72543335 C-78.57881732 253.25153794 -77.81376336 254.77613757 -77.04589844 256.29931641 C-75.89144706 258.59233222 -74.74975895 260.89136843 -73.609375 263.19140625 C-68.66093632 273.10226036 -63.21094942 282.40149173 -56.875 291.5 C-49.86741358 301.97390591 -45.62233269 313.31839579 -47 326 C-48.76528211 333.66445272 -52.39258622 338.75318362 -59 343 C-66.49557443 346.74208282 -73.19407795 348.1416205 -81.5625 348.125 C-82.86316406 348.12757813 -84.16382813 348.13015625 -85.50390625 348.1328125 C-89 348 -89 348 -90.73609924 347.50056458 C-94.04774886 346.76833527 -97.3438263 346.85569605 -100.71850586 346.8581543 C-101.49134415 346.85467987 -102.26418243 346.85120544 -103.06044006 346.84762573 C-104.73554201 346.84028508 -106.41065358 346.8349307 -108.08576775 346.83133507 C-110.73813093 346.82415572 -113.39031061 346.80847924 -116.0426178 346.78999329 C-123.5826673 346.73758503 -131.12261394 346.68953114 -138.6628418 346.67407227 C-143.27771345 346.66399122 -147.89211959 346.63466796 -152.50680733 346.59275246 C-154.26381472 346.58044347 -156.02088784 346.57532102 -157.77793694 346.57755089 C-160.23649699 346.57990387 -162.69372026 346.55774078 -165.15209961 346.5300293 C-165.87589813 346.53663071 -166.59969666 346.54323212 -167.34542847 346.55003357 C-172.16966928 346.46082455 -174.62352575 345.43292721 -178 342 C-181.49457378 336.09537534 -181.32926038 330.74374033 -181 324 C-181.84820312 324.39832031 -182.69640625 324.79664063 -183.5703125 325.20703125 C-210.47090641 337.35664015 -238.11895504 335.6014446 -265.4375 325.75 C-266.96091842 325.17345154 -268.48289563 324.59296387 -270 324 C-265.94863113 339.91330947 -260.23180564 353.69849859 -249 366 C-248.55591797 366.49177734 -248.11183594 366.98355469 -247.65429688 367.49023438 C-221.26436618 396.36643041 -182.38387946 411.91458709 -144 416 C-143.0203125 416.11085938 -142.040625 416.22171875 -141.03125 416.3359375 C-82.23664053 421.94263995 -17.45101718 404.23268504 30 369 C30.93714844 368.30777344 31.87429688 367.61554688 32.83984375 366.90234375 C60.24118165 345.51693868 80.35956287 316.41410124 86.5625 281.8671875 C89.8248643 253.0302173 83.55553967 227.30193097 65.75 204.3125 C59.58004887 197.00233338 52.17674476 191.26430872 44.4375 185.6875 C40.81395732 183.0187082 38.86984113 180.37229398 37.3125 176.125 C36.273514 169.05989519 37.28552366 163.27385636 41.1015625 157.265625 C44.59795448 152.70903675 48.00142681 150.47484737 53.6640625 149.578125 C62.32163481 148.99647932 67.29964066 151.78646391 74 157 C74.89460938 157.67546875 75.78921875 158.3509375 76.7109375 159.046875 C105.68333335 181.79311128 121.96921234 212.64970317 127.58984375 248.79296875 C130.98602107 278.33139278 124.94634865 307.45827731 112 334 C111.69336426 334.63244629 111.38672852 335.26489258 111.07080078 335.91650391 C98.17521257 362.14221285 77.52849985 384.87097892 54 402 C53.19248291 402.59071289 53.19248291 402.59071289 52.36865234 403.19335938 C39.65658471 412.41743033 26.22099476 420.28271044 12.04931641 427.02490234 C10.70477822 427.66465521 9.36317442 428.31061975 8.02490234 428.96337891 C-26.81284448 445.88015619 -68.21942935 457.00454788 -107.01171875 457.203125 C-107.93441055 457.21018463 -108.85710236 457.21724426 -109.80775452 457.22451782 C-148.43344531 457.45303258 -148.43344531 457.45303258 -165 454 C-166.49635986 453.69400879 -166.49635986 453.69400879 -168.02294922 453.38183594 C-196.10234369 447.47987969 -223.45114923 437.72178931 -247 421 C-248.01964844 420.28328125 -249.03929687 419.5665625 -250.08984375 418.828125 C-257.57355419 413.39593364 -264.32140848 407.36964987 -271 401 C-271.85464844 400.20980469 -272.70929688 399.41960937 -273.58984375 398.60546875 C-295.49285161 377.74051814 -309.52971724 348.75688537 -310.29736328 318.40429688 C-310.36284641 309.08456952 -309.38610986 299.84853495 -307.234375 290.76953125 C-306.90521423 285.47552891 -308.49766188 281.28607193 -310.1875 276.3125 C-313.61624579 265.63630346 -316.1983394 255.06365243 -318 244 C-318.11714355 243.31325195 -318.23428711 242.62650391 -318.35498047 241.91894531 C-329.15427831 176.0319959 -304.50645887 109.92044816 -266.54443359 56.96972656 C-258.20053324 45.57598677 -249.2577153 35.57577742 -238 27 C-236.81470703 26.09121094 -236.81470703 26.09121094 -235.60546875 25.1640625 C-214.51598583 9.70543654 -188.98502844 2.03940114 -163 1 C-161.989375 0.95875 -160.97875 0.9175 -159.9375 0.875 C-145.48771597 0.58600432 -132.22070061 2.76044534 -118.3125 6.5 C-108.85242736 9.03938168 -99.81416006 11.41797415 -90 12 C-88.7020752 12.08749512 -88.7020752 12.08749512 -87.37792969 12.17675781 C-84.4394759 12.35475552 -81.50474527 12.46774521 -78.5625 12.5625 C-77.63783936 12.61398193 -76.71317871 12.66546387 -75.76049805 12.71850586 C-70.5140006 12.78744488 -67.62268083 12.18874856 -63.6328125 8.6640625 C-62.4141946 7.45037142 -61.20226932 6.22988785 -60 5 C-42.39876397 -8.0024683 -19.62921448 -8.3540259 0 0 Z M-61.3046875 27.57421875 C-63.93117228 31.33239167 -66.16465436 35.30488762 -68.33666992 39.34033203 C-70.80725617 43.90362809 -70.80725617 43.90362809 -73 45 C-79.18035883 45.44948064 -79.18035883 45.44948064 -81.9375 43.9375 C-83.63480388 40.84241646 -83.34768293 38.47682933 -83 35 C-82.12406932 32.60122154 -81.05351448 30.32999498 -80 28 C-80.59723877 27.96036133 -81.19447754 27.92072266 -81.80981445 27.87988281 C-97.86031552 26.76882413 -113.35276466 24.91758782 -128.6875 19.875 C-154.98732366 11.39764567 -185.8877665 15.81390929 -210.375 27.875 C-230.60516892 38.25342859 -246.55558334 54.69366701 -258.9375 73.5625 C-259.63552734 74.61953125 -260.33355469 75.6765625 -261.05273438 76.765625 C-266.43296841 84.98361969 -271.43970951 93.303686 -276 102 C-276.32339355 102.60054199 -276.64678711 103.20108398 -276.97998047 103.81982422 C-304.99266563 155.94258447 -312.13125048 214.15028287 -295.62011719 270.99316406 C-294.7199285 273.90637312 -293.67088884 276.76142849 -292.625 279.625 C-290.54028078 285.67741064 -291.09702356 290.08839948 -292.50976562 296.20825195 C-297.99998353 320.87053699 -292.63793479 344.65092441 -279.80322266 365.98974609 C-254.97018811 404.92574322 -211.97633182 427.34847873 -168.015625 437.09008789 C-101.23379672 451.12237037 -26.30019226 435.45029407 30.9296875 398.7109375 C68.46510708 373.96642027 100.1194778 339.15167432 109.85107422 294.10864258 C111.38666169 286.46290533 112.70031837 278.804752 113 271 C113.03996094 270.25878906 113.07992188 269.51757812 113.12109375 268.75390625 C114.04070602 236.67566655 101.80685163 206.41534303 80.0703125 183.1640625 C79.38710938 182.44992188 78.70390625 181.73578125 78 181 C77.44054687 180.38898438 76.88109375 179.77796875 76.3046875 179.1484375 C72.78252616 175.42209289 68.90167518 172.16657295 64.875 169 C63.88242187 168.21625 62.88984375 167.4325 61.8671875 166.625 C59.12988691 164.71577185 59.12988691 164.71577185 56.1328125 165.25 C55.42898438 165.4975 54.72515625 165.745 54 166 C53.67 167.98 53.34 169.96 53 172 C53.73863281 172.53367188 54.47726562 173.06734375 55.23828125 173.6171875 C80.12455018 191.89452351 96.96888802 215.20429342 102.22631836 246.06201172 C107.23179339 281.46502724 97.34795856 317.01103058 76 345.5625 C36.0747188 397.17839658 -28.09869465 422.92670304 -91.38085938 431.0546875 C-112.13729178 433.37462745 -134.38618856 433.29857736 -155 430 C-155.77069824 429.88172852 -156.54139648 429.76345703 -157.33544922 429.64160156 C-192.9613863 423.96973878 -226.34630104 408.2910442 -253 384 C-253.80695313 383.27554687 -254.61390625 382.55109375 -255.4453125 381.8046875 C-271.26625771 366.8657462 -283.39293066 345.15034945 -284.23828125 323.1796875 C-284.26858474 321.41154493 -284.29319545 319.64329685 -284.3125 317.875 C-284.34150391 316.98167969 -284.37050781 316.08835937 -284.40039062 315.16796875 C-284.46347125 308.67551692 -284.46347125 308.67551692 -282.20703125 305.38671875 C-279.42326478 303.63762654 -277.43698286 303.74458935 -274.24609375 304.32421875 C-270.89542598 305.3323327 -267.96454062 306.97159381 -264.87890625 308.6015625 C-244.11296804 318.68868038 -219.79995471 321.35983598 -197.84765625 313.93359375 C-180.31941609 307.09825685 -167.71510572 295.09526717 -157 280 C-156.2575 278.96617187 -155.515 277.93234375 -154.75 276.8671875 C-152.0972593 273.08526299 -152.0972593 273.08526299 -150 269 C-150.9883677 265.1991448 -153.82986092 263.20999595 -156.75 260.75 C-167.3464003 251.40382247 -174.66896294 239.30712894 -176 225 C-176.33072651 216.66999409 -176.18992023 208.3321413 -176 200 C-176.556875 200.37511719 -177.11375 200.75023437 -177.6875 201.13671875 C-180.11885356 202.76720416 -182.55934825 204.38347372 -185 206 C-185.67482422 206.45898682 -186.34964844 206.91797363 -187.04492188 207.39086914 C-192.67979818 211.10860035 -198.54524698 213.15204657 -204.93359375 215.22851562 C-214.11271592 218.38988266 -220.69747055 223.17826696 -225 232 C-226.06603724 234.61524244 -227.07520952 237.23267854 -228.0078125 239.8984375 C-229 242 -229 242 -232 244 C-238.45283019 243.54716981 -238.45283019 243.54716981 -241 241 C-242.15876857 232.06092818 -238.25240908 223.81991274 -233.125 216.625 C-226.00424482 207.93983648 -218.08578028 204.53648024 -207.6171875 200.7890625 C-200.86955264 198.33110734 -195.37616719 195.79877453 -190 191 C-188.6696875 189.824375 -188.6696875 189.824375 -187.3125 188.625 C-180.881074 181.32446238 -177.64871037 174.48901655 -177.8125 164.6875 C-177.81314453 163.96626953 -177.81378906 163.24503906 -177.81445312 162.50195312 C-177.84774624 158.37730652 -178.20946303 154.43396751 -178.76635742 150.3425293 C-181.61691337 121.76250392 -177.98000149 93.24512644 -159.8046875 70.21875 C-148.19787281 56.79205147 -148.19787281 56.79205147 -140.6875 55.375 C-137.57364374 56.09915262 -136.07013303 56.53176446 -134 59 C-133.4375 62.375 -133.4375 62.375 -134 66 C-136.02966101 68.53707626 -138.24626858 70.41012324 -140.796875 72.40625 C-155.87918489 84.71341487 -162.58320182 103.02407271 -164.80810547 121.91552734 C-165.13109084 125.42398676 -165.19101974 128.91580702 -165.1875 132.4375 C-165.18741943 133.21391846 -165.18733887 133.99033691 -165.18725586 134.7902832 C-165.12346718 141.42632068 -164.45576922 147.88217955 -163.53515625 154.44921875 C-162.20746343 165.0425647 -161.93385162 175.53865037 -162.04296875 186.19921875 C-162.05312515 187.28980087 -162.06328156 188.380383 -162.07374573 189.50401306 C-162.11930483 194.04598961 -162.16854034 198.58760577 -162.24682617 203.12915039 C-162.30170574 206.48591048 -162.33049069 209.84211984 -162.35546875 213.19921875 C-162.37925095 214.20579025 -162.40303314 215.21236176 -162.42753601 216.24943542 C-162.4726066 228.65709333 -158.19509158 238.77695269 -150 248 C-141.76098788 256.12089008 -131.12396925 261.29663058 -120.94921875 266.5859375 C-101.38646676 276.83444144 -83.35534307 292.65836064 -76 314 C-75.30511779 317.69445707 -75.22338445 320.61935012 -77.125 324 C-79.88831857 325.4737699 -81.9084458 325.30915542 -85 325 C-85.86625 324.62875 -86.7325 324.2575 -87.625 323.875 C-89.99213253 322.70825344 -89.99213253 322.70825344 -92.3125 323.875 C-92.869375 324.24625 -93.42625 324.6175 -94 325 C-92.91831226 328.6206513 -92.91831226 328.6206513 -90.27734375 331.14453125 C-83.63843826 333.63839112 -75.33175083 332.51847083 -68.84765625 329.96484375 C-65.84159525 328.39508251 -64.52078303 327.04156606 -63 324 C-61.19605819 315.55269558 -65.22997115 307.3483011 -69.6796875 300.36328125 C-70.78069855 298.80473895 -71.90389504 297.26138147 -73.05859375 295.7421875 C-78.67409814 287.81042879 -83.01119305 279.2137172 -87.29058838 270.51229858 C-88.93648179 267.16737284 -90.59726111 263.82985469 -92.2578125 260.4921875 C-92.58397552 259.83613022 -92.91013855 259.18007294 -93.2461853 258.50413513 C-95.80704808 253.36311191 -98.43340471 248.26109791 -101.125 243.1875 C-101.50503174 242.46973389 -101.88506348 241.75196777 -102.27661133 241.01245117 C-104.06035831 237.64810308 -105.84806443 234.28586026 -107.63525391 230.92333984 C-109.40940995 227.57740858 -111.17398798 224.22655142 -112.9375 220.875 C-113.4938916 219.83110107 -114.0502832 218.78720215 -114.62353516 217.71166992 C-122.04535868 203.57057965 -125.27532496 190.60755581 -120.9765625 174.87890625 C-119.5104004 170.55666038 -117.42336002 166.85007056 -115 163 C-99.60005774 138.13254706 -96.72438064 112.36070744 -103 84 C-103.35637352 82.56240086 -103.71826319 81.12615674 -104.0859375 79.69140625 C-104.94101069 76.23822604 -105.32842674 73.53058742 -105 70 C-103 67 -103 67 -100.1875 66.125 C-96.29656403 65.97241428 -95.0407596 66.61327216 -92 69 C-90.7421875 71.87109375 -90.7421875 71.87109375 -89.875 75.4375 C-89.71741211 76.07695557 -89.55982422 76.71641113 -89.39746094 77.37524414 C-87.34371133 86.13687188 -86.19415221 95.08909145 -85 104 C-84.41412109 103.80156494 -83.82824219 103.60312988 -83.22460938 103.39868164 C-74.26533273 100.3843885 -65.24504321 97.97025511 -56 96 C-56.01160156 95.28714844 -56.02320313 94.57429688 -56.03515625 93.83984375 C-56.07696753 89.40187488 -56.10774421 85.47715292 -55.125 81.125 C-55.08375 80.09375 -55.0425 79.0625 -55 78 C-57.40211606 75.79584448 -57.40211606 75.79584448 -59.30078125 74.51953125 C-63.73150108 70.55734731 -66.73799162 63.0624914 -67.23828125 57.21484375 C-67.46408274 47.24392533 -65.78236674 39.02249013 -58.84375 31.53515625 C-51.24522928 25.20842183 -42.63788799 23.22786591 -33 24 C-27.01111779 25.17870909 -22.57933155 26.84998078 -18 31 C-17.34 31 -16.68 31 -16 31 C-15.566875 31.8971875 -15.566875 31.8971875 -15.125 32.8125 C-13.95257974 35.19327792 -13.95257974 35.19327792 -12 38 C-11.46251129 44.01987353 -11.46251129 44.01987353 -13.0625 46.9375 C-16.38824732 48.76129692 -18.25489963 48.67534597 -22 48 C-24.33033198 46.10713106 -26.29621054 44.08064563 -28.30078125 41.84765625 C-30.36397816 39.60422605 -31.3612542 39.06366584 -34.390625 38.76171875 C-40.4451031 38.604567 -44.33908985 38.68865811 -49 43 C-52.09359613 46.84032622 -53.28937821 51.08961355 -53 56 C-51.67324799 60.56900225 -49.76154184 63.38428532 -46.0625 66.375 C-43.09052545 68.02203855 -43.09052545 68.02203855 -40.1875 69.125 C-38 70 -38 70 -37 72 C-36.64032098 77.57502478 -36.65530211 79.58499879 -40 84 C-41.41559842 89.25344302 -41.40282158 94.08814524 -39.1953125 99.08984375 C-34.34603627 106.83917733 -25.41860766 111.19379745 -17 114 C-15.60560336 114.06665376 -14.20830125 114.08538199 -12.8125 114.0625 C-11.554375 114.041875 -10.29625 114.02125 -9 114 C-9.39832031 113.50371094 -9.79664063 113.00742188 -10.20703125 112.49609375 C-16.50346916 104.422559 -19.58022109 96.88343868 -18.8203125 86.55859375 C-17.40877363 77.58523954 -13.30002868 69.4069473 -7.25 62.6875 C-3.15438398 57.7798991 -3.15992789 52.85098494 -2.55859375 46.6640625 C-1.53885522 39.97514823 1.16674614 35.10168234 6.6171875 31.05859375 C9.03522665 29.58242537 11.45321942 28.23815815 14 27 C10.09470072 22.66588354 6.03959637 20.0420952 0.875 17.375 C0.11654785 16.98256104 -0.6419043 16.59012207 -1.42333984 16.18579102 C-23.04346953 5.2745471 -45.46533787 8.48282874 -61.3046875 27.57421875 Z M16 43 C11.3122029 47.92218696 10.98280591 53.51234274 11.0078125 60.0390625 C10.79727221 65.91079727 8.02973871 68.5714903 4.07421875 72.71875 C-1.0136296 78.31442502 -3.74978879 84.12854219 -4.125 91.71484375 C-3.84067657 96.91263146 -1.33213628 99.89413825 2.3125 103.3125 C5.54968869 105.8671082 7.74378523 107.25537289 12 107 C17.43104557 104.79092463 22.42393749 101.69358204 26 97 C27.6414471 90.81772726 26.30638275 87.23557693 23.625 81.75 C22.97065193 80.34928617 22.31697898 78.94825671 21.6640625 77.546875 C21.11492187 76.37640625 20.56578125 75.2059375 20 74 C17.95019756 67.85059267 17.84891755 60.50680245 20.75 54.625 C22.13104763 52.24269283 23.65726967 50.06886797 25.25 47.8125 C27.10266181 44.83500781 27.40314179 43.42670518 27 40 C23.10881968 40 19.49288776 41.35921287 16 43 Z M-100.86328125 170.1875 C-105.34259833 173.98714008 -106.78461842 179.42485513 -108 185 C-108.72490852 195.51117357 -104.79041173 204.06392244 -99.8125 213.125 C-99.11737305 214.41664063 -99.11737305 214.41664063 -98.40820312 215.734375 C-97.28024554 217.82749217 -96.14419787 219.91573044 -95 222 C-94.34 222 -93.68 222 -93 222 C-91.7889819 220.53648921 -91.7889819 220.53648921 -90.64453125 218.58984375 C-90.19005615 217.85419189 -89.73558105 217.11854004 -89.26733398 216.3605957 C-88.54719116 215.16116333 -88.54719116 215.16116333 -87.8125 213.9375 C-87.07592163 212.71969849 -87.07592163 212.71969849 -86.32446289 211.47729492 C-78.53183154 198.38562312 -70.97711206 184.72898586 -73 169 C-75.25586249 165.64843287 -76.52835249 164.41736888 -80.3828125 163.32421875 C-87.5165997 162.44048093 -94.9778282 166.4917681 -100.86328125 170.1875 Z M-137 275 C-137.60134766 276.09054687 -137.60134766 276.09054687 -138.21484375 277.203125 C-143.7747675 287.03700374 -150.01962922 295.96357582 -157.875 304.125 C-165.29521997 312.24328945 -165.0761136 319.9133632 -166 331 C-147.19 331 -128.38 331 -109 331 C-109 329.68 -109 328.36 -109 327 C-110.12643921 326.69763428 -110.12643921 326.69763428 -111.27563477 326.38916016 C-114.70474465 325.46834882 -118.133624 324.54668187 -121.5625 323.625 C-123.33463867 323.14933594 -123.33463867 323.14933594 -125.14257812 322.6640625 C-127.42655721 322.04988325 -129.70994748 321.43350915 -131.99267578 320.81469727 C-133.77078437 320.33299988 -135.54999056 319.85527473 -137.33154297 319.38647461 C-140.03447553 318.6580073 -141.83109424 318.14251423 -144 316.3125 C-145.44373714 312.97385787 -145.02378441 310.38697588 -144 307 C-142.08202709 303.10850874 -139.8387289 299.44065563 -137.5625 295.75 C-136.96373047 294.75742187 -136.36496094 293.76484375 -135.74804688 292.7421875 C-133.55587368 289.11884189 -131.34925786 285.52388678 -129 282 C-129 281.01 -129 280.02 -129 279 C-131.64 277.68 -134.28 276.36 -137 275 Z M-115 288 C-121.85088909 296.84011343 -121.85088909 296.84011343 -125 307 C-121.98523188 307.87662191 -118.96254317 308.72208639 -115.9375 309.5625 C-115.08994141 309.80935547 -114.24238281 310.05621094 -113.36914062 310.31054688 C-108.24426373 311.71543591 -104.26748083 312.41386814 -99 311 C-96.61971709 309.57324827 -96.61971709 309.57324827 -95 308 C-103.51009262 296.38472362 -103.51009262 296.38472362 -115 288 Z " fill="#777777" transform="translate(352,30)"/>
</svg>
