<?xml version="1.0" encoding="UTF-8"?>
<svg version="1.1" xmlns="http://www.w3.org/2000/svg" width="512" height="512">
<path d="M0 0 C1.01620001 -0.00829899 2.03240003 -0.01659798 3.07939398 -0.02514845 C4.20426824 -0.02409761 5.32914251 -0.02304676 6.48810387 -0.02196407 C7.67656548 -0.02861188 8.86502709 -0.03525969 10.08950269 -0.04210895 C13.39885829 -0.05844382 16.70801083 -0.06570858 20.01739049 -0.06909573 C23.58266814 -0.0748422 27.14789429 -0.09196694 30.71314049 -0.10744381 C39.32938806 -0.14223881 47.94563154 -0.15778881 56.56193405 -0.17156711 C60.61841608 -0.17852459 64.67489299 -0.18768229 68.73137093 -0.1966753 C82.21489309 -0.22588616 95.69841023 -0.25067776 109.18196106 -0.26129913 C110.04542081 -0.26198983 110.90888055 -0.26268052 111.79850575 -0.26339215 C112.66405068 -0.26408416 113.52959562 -0.26477618 114.42136919 -0.26548916 C116.17533406 -0.26690116 117.92929892 -0.26832197 119.68326378 -0.26975155 C120.55329381 -0.27045672 121.42332383 -0.27116189 122.31971841 -0.27188843 C136.41134142 -0.28413378 150.50269512 -0.32691463 164.59420641 -0.38269175 C179.0584749 -0.43947974 193.5226073 -0.46994999 207.98698843 -0.47431129 C216.10950587 -0.47739334 224.2316495 -0.49189484 232.35405922 -0.53559208 C239.27236039 -0.57270614 246.19018659 -0.58586827 253.10857303 -0.56788719 C256.63795798 -0.55943664 260.16637332 -0.56225328 263.69563103 -0.59570599 C267.52481332 -0.63167972 271.35264881 -0.61322277 275.18195152 -0.58959103 C276.29344145 -0.60861668 277.40493139 -0.62764233 278.55010283 -0.64724451 C285.30771619 -0.54789061 288.84282492 0.65462997 293.62659872 5.50811821 C294.15109408 6.08810332 294.67558945 6.66808843 295.21597862 7.26564884 C296.10285362 8.13189884 296.98972862 8.99814884 297.90347862 9.89064884 C298.66660362 10.67439884 299.42972862 11.45814884 300.21597862 12.26564884 C303.13224465 15.21747909 306.06203697 18.06953743 309.21597862 20.76564884 C312.36992027 23.46176025 315.29971259 26.31381859 318.21597862 29.26564884 C321.1118982 32.19683076 324.01840434 35.02968058 327.15347862 37.70314884 C331.0221566 41.00911002 334.57662167 44.59709562 338.14713097 48.21633244 C341.36351726 51.4594755 344.69715799 54.47879879 348.16910362 57.44143009 C352.37154766 61.18673804 356.26873225 65.25530261 360.21597862 69.26564884 C360.74855109 69.6750159 361.28112355 70.08438295 361.82983458 70.50615507 C363.916403 73.1547284 363.5921118 75.31439361 363.59350204 78.65192413 C363.59786237 79.30589952 363.60222269 79.95987491 363.60671514 80.63366774 C363.61772487 82.84050192 363.60722337 85.04671826 363.59692955 87.25354862 C363.60038388 88.84546323 363.60514692 90.43737545 363.61111128 92.02928263 C363.62368208 96.41585424 363.6174234 100.80223107 363.60815263 105.18880355 C363.6013872 109.91485655 363.61183091 114.64087518 363.62009239 119.36692142 C363.6334591 128.63030567 363.63053885 137.89361715 363.62185447 147.15700429 C363.61508945 154.68360266 363.61415607 162.21018058 363.61742592 169.73678112 C363.61788562 170.8065092 363.61834532 171.87623727 363.61881895 172.97838135 C363.61977809 175.15127583 363.62075073 177.32417031 363.62173672 179.49706478 C363.63029932 199.89106733 363.62044306 220.28502949 363.60433562 240.67902542 C363.59093357 258.18993511 363.59325792 275.70078515 363.6070919 293.21169376 C363.62313567 313.52933423 363.62947324 333.84693925 363.62025511 354.16458517 C363.61929943 356.32995704 363.61835632 358.49532892 363.61742592 360.6607008 C363.61696309 361.72619955 363.61650027 362.7916983 363.61602341 363.88948489 C363.61342977 371.40926462 363.61781262 378.92902192 363.62486458 386.44879818 C363.6332665 395.60980157 363.63102712 404.77072782 363.61502235 413.93172234 C363.60712168 418.60862232 363.60407847 423.28539355 363.6139698 427.96229267 C363.62288029 432.24003366 363.61804439 436.517526 363.60203715 440.79524428 C363.59867379 442.34635702 363.6004181 443.89749058 363.60766451 445.44859003 C363.61673441 447.55053981 363.60748523 449.65162826 363.59350204 451.75353241 C363.59301499 452.92296369 363.59252793 454.09239497 363.59202611 455.29726356 C363.16816224 458.64309435 362.75477261 460.0419626 360.21597862 462.26564884 C357.51285648 462.76474416 357.51285648 462.76474416 354.17049217 462.76342678 C352.89841313 462.77262437 351.6263341 462.78182196 350.31570721 462.79129827 C348.89598715 462.78126722 347.47626969 462.77086269 346.05655479 462.76012516 C344.55467181 462.7632998 343.05279167 462.76822546 341.55091953 462.77475798 C337.41317824 462.78762305 333.27582644 462.77541993 329.13811064 462.75922942 C324.67997361 462.74610385 320.22188115 462.75596614 315.76373863 462.76299381 C307.02604236 462.77309148 298.28849714 462.76177751 289.55081964 462.74329321 C279.38324861 462.72255487 269.21571049 462.7226648 259.04812229 462.72363837 C240.91100858 462.72464031 222.77396534 462.70629788 204.63687706 462.67726994 C187.02293171 462.64909371 169.40904838 462.63492834 151.79508018 462.63625431 C150.71029817 462.63633422 149.62551616 462.63641414 148.50786197 462.63649647 C146.88354934 462.63661753 146.88354934 462.63661753 145.22642231 462.63674104 C125.19530614 462.63811968 105.16421641 462.62634659 85.13310879 462.60843461 C78.03966799 462.60239384 70.94623202 462.60027453 63.85278893 462.59937 C55.21255118 462.59800767 46.57235799 462.58910545 37.93213916 462.57070439 C33.52070062 462.56145128 29.10931916 462.55538368 24.69787025 462.5578928 C20.66386011 462.56007604 16.62997644 462.55308828 12.59599268 462.53859575 C11.13238234 462.53495657 9.668759 462.53472062 8.2051481 462.53813033 C6.22391819 462.54223669 4.24267378 462.53296162 2.26146507 462.52291775 C1.15848485 462.5215089 0.05550463 462.52010005 -1.08089924 462.51864851 C-3.78402138 462.26564884 -3.78402138 462.26564884 -6.78402138 460.26564884 C-7.08368497 457.72156008 -7.18429135 455.41948635 -7.15875149 452.87238407 C-7.16281221 452.09740043 -7.16687294 451.32241678 -7.17105672 450.52394879 C-7.18108639 447.89950303 -7.16952819 445.27558155 -7.15824318 442.65114689 C-7.16098088 440.76168532 -7.16503047 438.87222526 -7.17028683 436.98276901 C-7.18092493 431.76916899 -7.17271168 426.55573913 -7.16153634 421.3421464 C-7.15272824 415.72790448 -7.16112798 410.11368565 -7.16739845 404.49944401 C-7.17690836 393.49266073 -7.17026747 382.48594281 -7.15813551 371.47916436 C-7.14454509 358.6743474 -7.14615075 345.86954618 -7.14826884 333.06472385 C-7.1515585 309.5343876 -7.13862766 286.00409326 -7.1184238 262.47376876 C-7.10005334 240.97762889 -7.09424124 219.48152228 -7.09969521 197.9853754 C-7.10004164 196.60518579 -7.10038774 195.22499617 -7.1007335 193.84480655 C-7.10090449 193.16247833 -7.10107549 192.48015012 -7.10125166 191.77714529 C-7.10210516 188.342644 -7.10292895 184.9081427 -7.10372066 181.4736414 C-7.10387775 180.79611806 -7.10403483 180.11859473 -7.10419667 179.42054038 C-7.10818361 161.47688466 -7.10266996 143.53323271 -7.09420937 125.58957863 C-7.09300202 123.01868089 -7.09179604 120.44778315 -7.09059143 117.87688541 C-7.08998789 116.61179431 -7.08938435 115.34670321 -7.08876253 114.04327601 C-7.08487545 105.1074192 -7.08528005 96.17156835 -7.08717728 87.2357111 C-7.08929461 76.35308064 -7.08411034 65.47048223 -7.06956372 54.58786082 C-7.0622965 49.0302536 -7.05826243 43.47269318 -7.06280708 37.91508198 C-7.06686035 32.83499224 -7.06178456 27.75499946 -7.04918101 22.67492449 C-7.04623427 20.82974109 -7.04671313 18.98454864 -7.05082408 17.13936746 C-7.05587843 14.64576467 -7.0488141 12.15249294 -7.03849697 9.65891361 C-7.04289346 8.92994912 -7.04728994 8.20098463 -7.05181965 7.44993031 C-7.00475469 1.5437435 -5.88241632 0.02024369 0 0 Z " fill="#F8F6F6" transform="translate(6.784021377563477,24.73435115814209)"/>
<path d="M0 0 C8.98848674 -0.1626158 17.97646267 -0.28678181 26.9661026 -0.3626852 C31.14101841 -0.3991267 35.3149236 -0.44850555 39.48925781 -0.52807617 C43.52235249 -0.60446818 47.55447894 -0.64605854 51.58824158 -0.6641407 C53.12246434 -0.67701611 54.65663758 -0.7021602 56.19044495 -0.7401104 C69.70303698 -1.06096779 69.70303698 -1.06096779 74.83789062 3.37866211 C75.92505805 4.55602389 76.98364275 5.76099568 78 7 C78.886875 7.86625 79.77375 8.7325 80.6875 9.625 C81.450625 10.40875 82.21375 11.1925 83 12 C85.91626603 14.95183025 88.84605835 17.80388859 92 20.5 C95.15394165 23.19611141 98.08373397 26.04816975 101 29 C103.89591958 31.93118191 106.80242571 34.76403174 109.9375 37.4375 C113.80617798 40.74346118 117.36064305 44.33144678 120.93115234 47.95068359 C124.14753864 51.19382666 127.48117936 54.21314995 130.953125 57.17578125 C135.15556903 60.9210892 139.05275362 64.98965377 143 69 C143.53257247 69.40936706 144.06514493 69.81873411 144.61385596 70.24050623 C146.70042438 72.88907956 146.37613318 75.04874476 146.37752342 78.38627529 C146.38188374 79.04025068 146.38624407 79.69422607 146.39073652 80.3680189 C146.40174625 82.57485308 146.39124475 84.78106942 146.38095093 86.98789978 C146.38440525 88.57981439 146.3891683 90.17172661 146.39513266 91.76363379 C146.40770346 96.15020539 146.40144478 100.53658223 146.39217401 104.92315471 C146.38540858 109.64920771 146.39585229 114.37522633 146.40411377 119.10127258 C146.41748048 128.36465683 146.41456023 137.62796831 146.40587585 146.89135545 C146.39911083 154.41795382 146.39817745 161.94453174 146.4014473 169.47113228 C146.401907 170.54086036 146.40236669 171.61058843 146.40284032 172.71273251 C146.40379947 174.88562699 146.4047721 177.05852147 146.4057581 179.23141593 C146.4143207 199.62541849 146.40446444 220.01938065 146.388357 240.41337658 C146.37495495 257.92428627 146.3772793 275.43513631 146.39111328 292.94604492 C146.40715704 313.26368539 146.41349462 333.58129041 146.40427649 353.89893633 C146.40332081 356.0643082 146.4023777 358.22968008 146.4014473 360.39505196 C146.40098447 361.46055071 146.40052164 362.52604946 146.40004479 363.62383605 C146.39745114 371.14361578 146.401834 378.66337308 146.40888596 386.18314934 C146.41728788 395.34415273 146.4150485 404.50507898 146.39904372 413.66607349 C146.39114306 418.34297348 146.38809985 423.01974471 146.39799118 427.69664383 C146.40690167 431.97438481 146.40206576 436.25187716 146.38605852 440.52959544 C146.38269517 442.08070818 146.38443947 443.63184173 146.39168589 445.18294119 C146.40075579 447.28489096 146.3915066 449.38597942 146.37752342 451.48788357 C146.37703637 452.65731485 146.37654931 453.82674613 146.37604749 455.03161472 C145.96113799 458.30676293 145.34687368 459.70645063 143 462 C140.03837299 462.49219131 140.03837299 462.49219131 136.3372345 462.48101807 C135.65680153 462.48443577 134.97636856 462.48785347 134.27531642 462.49137473 C131.99016624 462.49797528 129.70618492 462.47594364 127.42114258 462.45410156 C125.78525317 462.45297354 124.14936174 462.45360605 122.51347351 462.45587158 C118.06733535 462.45702145 113.62162694 462.4334682 109.17558885 462.40557575 C104.53111833 462.38060744 99.88663848 462.37822371 95.24211121 462.37347412 C86.44478959 462.36103088 77.6476663 462.32819107 68.8504321 462.28807616 C58.83607078 462.24340036 48.8217001 462.22138197 38.80726397 462.20129442 C18.20473187 462.15945959 -2.39762159 462.08908137 -23 462 C-19.92801239 458.90991145 -16.82254108 455.88810498 -13.59912109 452.95556641 C7.41402627 433.82879013 24.28742105 413.03338939 38 388 C36.97127274 388.00888245 35.94254547 388.01776489 34.88264465 388.0269165 C25.18632501 388.10801469 15.4900742 388.16797134 5.79349232 388.20724869 C0.80839207 388.22812051 -4.17643432 388.25643087 -9.16137695 388.30175781 C-13.97244774 388.34522985 -18.78325517 388.36914016 -23.59450722 388.37950897 C-25.42974303 388.3868979 -27.26496447 388.4013268 -29.10008812 388.42292023 C-31.67145268 388.45197257 -34.24173005 388.45595529 -36.81323242 388.45410156 C-37.57136734 388.46848267 -38.32950226 388.48286377 -39.11061096 388.49768066 C-42.79855126 388.46892664 -44.83567968 388.10522399 -47.97236633 386.09661865 C-50 384 -50 384 -50.62890625 382 C-50.60699219 381.34 -50.58507812 380.68 -50.5625 380 C-50.56378906 379.34 -50.56507813 378.68 -50.56640625 378 C-49.70732093 374.96654012 -48.52615731 373.90882171 -46 372 C-43.00875423 371.39105291 -40.05316903 371.43619503 -37.00878906 371.45410156 C-36.10112289 371.44376389 -35.19345673 371.43342621 -34.25828552 371.42277527 C-31.26055201 371.39329652 -28.2634922 371.39184701 -25.265625 371.390625 C-23.18624581 371.3756468 -21.10687854 371.35892041 -19.02752686 371.34051514 C-13.55637065 371.29678916 -8.08537493 371.27683082 -2.61407471 371.26177979 C2.96961986 371.24222769 8.55314062 371.20025553 14.13671875 371.16015625 C25.09112171 371.08479702 36.04539893 371.03661213 47 371 C50.63 362.09 54.26 353.18 58 344 C54.9060083 344.02094727 51.8120166 344.04189453 48.62426758 344.06347656 C38.40638873 344.12972954 28.18850044 344.17392868 17.97046375 344.20724869 C11.77470865 344.22813109 5.57917346 344.25646127 -0.61645508 344.30175781 C-6.59461443 344.34519134 -12.57256213 344.36913219 -18.55086708 344.37950897 C-20.83266851 344.38690475 -23.11445824 344.4013468 -25.39616966 344.42292023 C-28.59013353 344.45192029 -31.78322076 344.45595732 -34.97729492 344.45410156 C-35.92244461 344.46848267 -36.8675943 344.48286377 -37.84138489 344.49768066 C-42.05466089 344.47115916 -44.38619481 344.37004427 -48.06001282 342.1552124 C-50.57525885 339.36092103 -51.07662636 337.75469144 -51 334 C-49.22960551 331.25283613 -47.93708156 329.46854078 -45 328 C-43.54282912 327.90797438 -42.08150235 327.87806724 -40.62142944 327.87974548 C-39.70153732 327.87837082 -38.7816452 327.87699615 -37.83387756 327.87557983 C-36.31581764 327.88097275 -36.31581764 327.88097275 -34.76708984 327.88647461 C-33.7036586 327.88632858 -32.64022736 327.88618256 -31.54457092 327.8860321 C-28.01667263 327.88673081 -24.48882661 327.89452129 -20.9609375 327.90234375 C-18.51998931 327.90420808 -16.07904074 327.90563191 -13.63809204 327.90663147 C-7.20352145 327.91045549 -0.76897332 327.9202848 5.66558838 327.93133545 C12.22757666 327.94155205 18.78956856 327.94612962 25.3515625 327.95117188 C38.2343846 327.96190716 51.11719111 327.97879085 64 328 C64.2022574 327.08724792 64.2022574 327.08724792 64.40860081 326.1560564 C64.58680835 325.35277755 64.76501589 324.54949869 64.94862366 323.72187805 C65.12471192 322.92775167 65.30080019 322.13362528 65.48222446 321.31543446 C66.17448956 318.21970213 66.89674877 315.13133851 67.62109375 312.04296875 C71.41532663 295.69786207 74.87740173 279.45727727 76.53173828 262.73364258 C76.61996857 261.84397293 76.70819885 260.95430328 76.79910278 260.03767395 C76.86539886 259.36524155 76.93169495 258.69280914 77 258 C76.3697781 258.00368717 75.7395562 258.00737434 75.09023666 258.01117325 C59.75873306 258.09949332 44.42731788 258.16569436 29.09562302 258.20724869 C21.68133155 258.22787797 14.26720985 258.2560053 6.85302734 258.30175781 C0.39115291 258.34161469 -6.07059859 258.36743016 -12.53259254 258.37635398 C-15.95454357 258.38157078 -19.3761429 258.393839 -22.79798126 258.42292023 C-26.61716283 258.45185016 -30.43560975 258.45596019 -34.25488281 258.45410156 C-35.39064255 258.46848267 -36.52640228 258.48286377 -37.69657898 258.49768066 C-38.73701859 258.49218201 -39.77745819 258.48668335 -40.84942627 258.48101807 C-41.75278339 258.48470524 -42.65614052 258.48839241 -43.5868721 258.49219131 C-46.79147465 257.83856763 -47.97039667 256.51111063 -50 254 C-51 251.0625 -51 251.0625 -51 248 C-49.22960551 245.25283613 -47.93708156 243.46854078 -45 242 C-43.35278562 241.90713757 -41.70180048 241.87807899 -40.05197144 241.87974548 C-39.005867 241.87837082 -37.95976257 241.87699615 -36.88195801 241.87557983 C-35.15350647 241.88097275 -35.15350647 241.88097275 -33.39013672 241.88647461 C-32.18040192 241.88632858 -30.97066711 241.88618256 -29.72427368 241.8860321 C-26.40215979 241.88661044 -23.08010763 241.89163445 -19.75800467 241.89860606 C-16.28798192 241.90484662 -12.8179584 241.90544396 -9.34793091 241.90663147 C-2.77478602 241.90974271 3.79834229 241.91795331 10.37147987 241.92798096 C17.85384834 241.93914852 25.33621759 241.94465417 32.81859231 241.94967639 C48.21240612 241.96013609 63.60619708 241.978479 79 242 C79 232.76 79 223.52 79 214 C75.23432617 214.02094727 71.46865234 214.04189453 67.58886719 214.06347656 C55.16372683 214.12967919 42.73858927 214.17411208 30.31332016 214.20724869 C22.77796188 214.22787845 15.24277061 214.25600671 7.70751953 214.30175781 C1.14016969 214.34161321 -5.42705921 214.36742981 -11.99452662 214.37635398 C-15.47236652 214.38157102 -18.94986038 214.39384086 -22.42758942 214.42292023 C-26.30888886 214.45511117 -30.18984904 214.45596024 -34.07128906 214.45410156 C-35.22575027 214.46848267 -36.38021149 214.48286377 -37.56965637 214.49768066 C-38.62692429 214.49218201 -39.6841922 214.48668335 -40.77349854 214.48101807 C-41.69160435 214.48470524 -42.60971016 214.48839241 -43.55563736 214.49219131 C-46.76366993 213.84622916 -47.95940642 212.49857413 -50 210 C-50.6015625 208 -50.6015625 208 -50.625 206 C-50.65851563 205.34 -50.69203125 204.68 -50.7265625 204 C-49.79026318 201.42265994 -48.32045018 200.29915847 -46.03919601 198.85071564 C-41.64258174 197.0165278 -36.80541635 197.48568964 -32.11962891 197.54589844 C-30.92881714 197.54531433 -29.73800537 197.54473022 -28.5111084 197.54412842 C-25.25922339 197.54643162 -22.008034 197.56644022 -18.7562871 197.59442425 C-15.35304846 197.61949217 -11.94979499 197.62178412 -8.54647827 197.62652588 C-2.10792429 197.63893993 4.33035682 197.67173992 10.76879084 197.71192384 C18.10127906 197.75669076 25.43378055 197.7786409 32.76637149 197.79870558 C47.84439949 197.84047421 62.92217241 197.91079533 78 198 C77.60948548 193.96293567 77.21523048 189.92625403 76.81782532 185.88986206 C76.68373312 184.52289188 76.5505818 183.155829 76.41847229 181.78866577 C72.73573669 143.71245047 63.98798186 105.8697321 47.13867188 71.33886719 C45.95925481 68.91630811 44.81519358 66.47883968 43.671875 64.0390625 C33.69621365 43.08875235 20.48801789 24.35964907 5.3828125 6.8125 C3.49765727 4.58739874 1.73377263 2.34093767 0 0 Z " fill="#E1E1E1" transform="translate(224,25)"/>
<path d="M0 0 C8.75438989 8.16164474 8.75438989 8.16164474 9.12025452 13.87931824 C9.11803391 14.58325211 9.11581329 15.28718597 9.11352539 16.01245117 C9.11344986 16.81305466 9.11337433 17.61365814 9.11329651 18.43852234 C9.10813522 19.29798965 9.10297394 20.15745697 9.09765625 21.04296875 C9.0962413 21.9265657 9.09482635 22.81016266 9.09336853 23.72053528 C9.08777069 26.54289128 9.07521861 29.36516797 9.0625 32.1875 C9.05748472 34.10091031 9.05292186 36.01432187 9.04882812 37.92773438 C9.03780197 42.61852014 9.02053883 47.30924663 9 52 C9.77762695 52.12479736 10.55525391 52.24959473 11.35644531 52.37817383 C14 53 14 53 16.296875 54.94921875 C18.71340209 59.27790604 18.43863358 62.9479302 18.25 67.8125 C18.23195313 68.69615234 18.21390625 69.57980469 18.1953125 70.49023438 C18.14838513 72.66062543 18.07664731 74.83045519 18 77 C19.09989258 76.97905273 20.19978516 76.95810547 21.33300781 76.93652344 C25.41799881 76.86406365 29.50293314 76.81817885 33.58837891 76.78027344 C35.35572872 76.7601715 37.12301213 76.73288528 38.89013672 76.69824219 C41.43213285 76.64965991 43.97324896 76.62701774 46.515625 76.609375 C47.69865204 76.57840729 47.69865204 76.57840729 48.90557861 76.54681396 C52.31620762 76.54542236 54.46390754 76.58504535 57.20933628 78.71010494 C59.33944778 81.43408473 59.50040345 82.67385376 59.50120544 86.09242249 C59.51595665 87.63395744 59.51595665 87.63395744 59.53100586 89.20663452 C59.52133789 90.32833038 59.51166992 91.45002625 59.50170898 92.60571289 C59.50981346 94.38426414 59.50981346 94.38426414 59.51808167 96.19874573 C59.52844426 99.44677561 59.52086891 102.69414373 59.50437045 105.94213033 C59.4905148 109.34134282 59.49698049 112.74052471 59.50050354 116.13975525 C59.50320491 121.8469191 59.48973536 127.55387254 59.46655273 133.26098633 C59.43993052 139.86057206 59.4382001 146.45980628 59.4499411 153.05942732 C59.46071652 159.40796984 59.45453455 165.75638512 59.44038582 172.10491753 C59.43462519 174.80703168 59.43470922 177.50905276 59.43945122 180.21116829 C59.44235145 183.98222403 59.42591281 187.75269914 59.40405273 191.52368164 C59.40855438 192.64740173 59.41305603 193.77112183 59.41769409 194.92889404 C59.40778946 195.95376419 59.39788483 196.97863434 59.38768005 198.03456116 C59.38525016 198.92627046 59.38282026 199.81797976 59.38031673 200.73671055 C58.92048411 203.47320417 58.18010317 204.33500949 56 206 C53.04091495 207.01231857 51.41079334 207.10758873 48.375 206.3125 C45.6741105 204.81990317 44.62350866 203.60436273 43 201 C42.63085651 198.82113266 42.63085651 198.82113266 42.63923645 196.41888428 C42.63511246 195.50465698 42.63098846 194.59042969 42.6267395 193.64849854 C42.63752533 192.65299988 42.64831116 191.65750122 42.65942383 190.63183594 C42.65876671 189.05088135 42.65876671 189.05088135 42.65809631 187.43798828 C42.66018681 183.95326228 42.68353079 180.46901699 42.70703125 176.984375 C42.71262626 174.56870792 42.71689681 172.15303743 42.71989441 169.73736572 C42.73135058 163.37836311 42.76082469 157.01956595 42.79400635 150.66064453 C42.82469042 144.17222879 42.83839621 137.68377987 42.85351562 131.1953125 C42.88569345 118.46343686 42.93846796 105.73176765 43 93 C34.75 93 26.5 93 18 93 C18.0766111 98.19467514 18.0766111 98.19467514 18.1547699 103.49429321 C18.61587064 135.51104579 18.9574617 167.52725071 19.17450258 199.54660151 C19.20325682 203.77309884 19.23302739 207.99958843 19.26342773 212.22607422 C19.26946087 213.06722528 19.27549401 213.90837634 19.28170998 214.77501683 C19.380844 228.2612786 19.56163245 241.74520399 19.77451431 255.2300957 C19.99229739 269.14518224 20.11790522 283.05907635 20.16403538 296.9757961 C20.19232485 304.7609097 20.25884563 312.54118388 20.43179131 320.324543 C21.33254144 362.0811926 15.80987364 393.15199601 -3.74565387 430.56102324 C-6.34774241 435.62057843 -8.68021737 440.80595106 -11 446 C-13.62686768 443.49892539 -14.93044126 441.33477412 -16.37255859 437.98461914 C-16.81667084 436.96247818 -17.26078308 435.94033722 -17.71835327 434.88722229 C-18.42624496 433.2279496 -18.42624496 433.2279496 -19.1484375 431.53515625 C-19.64284332 430.39147079 -20.13724915 429.24778534 -20.64663696 428.06944275 C-21.96176498 425.02336141 -23.27056175 421.97471437 -24.57647705 418.92468262 C-25.88918442 415.86340448 -27.21076556 412.80597843 -28.53125 409.74804688 C-30.48081862 405.22695301 -32.42846029 400.70505816 -34.36865234 396.17993164 C-34.7570932 395.27408829 -35.14553406 394.36824493 -35.54574585 393.43495178 C-36.02564972 392.30141769 -36.50555359 391.16788361 -37 390 C-37.40059321 389.17938656 -37.80118641 388.35877312 -38.21391881 387.51329261 C-41.85824522 379.65403407 -42.71127645 373.12252089 -42.62145996 364.52481079 C-42.62784878 363.22022144 -42.6342376 361.91563208 -42.64082003 360.57150972 C-42.65767706 356.98425696 -42.64372611 353.39771095 -42.62430525 349.81049609 C-42.60878854 345.92913942 -42.62230281 342.04786436 -42.63204956 338.16650391 C-42.64653079 330.57802367 -42.63438966 322.98981219 -42.61293632 315.40135749 C-42.58886308 306.56027452 -42.59064441 297.71925229 -42.59324223 288.87814383 C-42.59692718 273.10539308 -42.57614832 257.33276863 -42.54199219 241.56005859 C-42.50887036 226.25924491 -42.49474019 210.95856365 -42.50097656 195.65771484 C-42.50774013 178.98144428 -42.50528386 162.30522908 -42.48561716 145.62896669 C-42.48457768 144.74733513 -42.48353819 143.86570357 -42.4824672 142.95735591 C-42.48037636 141.18675972 -42.47826538 139.41616356 -42.47613403 137.64556742 C-42.46924031 131.48367383 -42.46856875 125.32179731 -42.47001648 119.15990067 C-42.47145588 111.65483796 -42.46177004 104.14988318 -42.43807012 96.64485629 C-42.42620961 92.81623149 -42.41908542 88.98775714 -42.42490768 85.15911484 C-42.43103046 81.01035079 -42.41391947 76.86200996 -42.39440918 72.71328735 C-42.39973711 71.50162828 -42.40506503 70.28996921 -42.41055441 69.04159319 C-42.32512531 58.54985912 -42.32512531 58.54985912 -39 54 C-35.8125 52.625 -35.8125 52.625 -33 52 C-33.02094727 50.93152832 -33.04189453 49.86305664 -33.06347656 48.76220703 C-33.13649321 44.75534749 -33.18202112 40.74854535 -33.21972656 36.74121094 C-33.23970285 35.01487298 -33.26689372 33.28860147 -33.30175781 31.5625 C-33.7184889 10.38275551 -33.7184889 10.38275551 -27.32128906 3.08496094 C-19.9886249 -4.02855606 -8.7466294 -5.3175531 0 0 Z " fill="#F36C36" transform="translate(453,35)"/>
<path d="M0 0 C1.22783203 0.01482422 2.45566406 0.02964844 3.72070312 0.04492188 C4.90470703 0.08294922 6.08871094 0.12097656 7.30859375 0.16015625 C8.38810303 0.18859619 9.4676123 0.21703613 10.57983398 0.24633789 C13.62248628 0.9514004 15.36773838 1.78923246 17.51401842 4.07132757 C19.94937564 8.40597359 19.22106245 13.82409382 19.16377258 18.64924622 C19.16804471 19.95617154 19.17231683 21.26309687 19.17671841 22.609626 C19.18790075 26.23570868 19.16789699 29.8610532 19.14282811 33.48704183 C19.12124464 37.39769232 19.12854203 41.30830085 19.13233948 45.21899414 C19.13496181 51.99397972 19.11926853 58.76872463 19.09115028 65.54364967 C19.0505226 75.33902312 19.03749383 85.13428014 19.03121033 94.92972871 C19.02026599 110.82195218 18.98698801 126.71404736 18.93969727 142.60620117 C18.89380528 158.04434568 18.85841161 173.48245535 18.8371582 188.9206543 C18.83584459 189.87219227 18.83453097 190.82373024 18.83317754 191.8041027 C18.82665238 196.57766803 18.82033383 201.35123362 18.81411803 206.12479937 C18.76228067 245.72912714 18.67283596 285.33329519 18.5625 324.9375 C5.6925 325.2675 -7.1775 325.5975 -20.4375 325.9375 C-20.50529806 285.52832017 -20.55901746 245.11915527 -20.59069599 204.70993003 C-20.59444818 199.94089727 -20.59833114 195.17186462 -20.60229492 190.40283203 C-20.60308185 189.4533904 -20.60386878 188.50394876 -20.60467956 187.52573617 C-20.61773889 172.14590528 -20.64139563 156.76610798 -20.66895839 141.38629703 C-20.69699793 125.60903702 -20.71367319 109.83179462 -20.71976548 94.05451071 C-20.72388494 84.31651529 -20.73690303 74.57861481 -20.7612494 64.84064861 C-20.77708867 58.16592671 -20.78190446 51.49125399 -20.77800413 44.81651466 C-20.77607976 40.96364923 -20.77906121 37.11094987 -20.79511642 33.25811386 C-20.81238989 29.08247908 -20.80647357 24.90719916 -20.79826355 20.73153687 C-20.80700207 19.51169236 -20.8157406 18.29184785 -20.82474393 17.03503835 C-20.76975315 6.72701803 -20.76975315 6.72701803 -17.4375 1.9375 C-12.65618186 -1.67969361 -5.65563433 -0.19236851 0 0 Z " fill="#FE9736" transform="translate(431.4375,87.0625)"/>
<path d="M0 0 C2 1.625 2 1.625 3 4 C2.96405485 11.0272766 -0.54516227 15.11201967 -4.75 20.5 C-5.99510939 22.13517478 -7.2399063 23.77058756 -8.484375 25.40625 C-9.03834961 26.12103516 -9.59232422 26.83582031 -10.16308594 27.57226562 C-10.76926758 28.37341797 -11.37544922 29.17457031 -12 30 C-12.88582764 30.90468018 -13.77165527 31.80936035 -14.68432617 32.74145508 C-18.4672887 38.11584794 -17.65799002 45.02218175 -17.59158516 51.32234764 C-17.56604418 53.76509698 -17.57099967 56.2061693 -17.58348083 58.64900208 C-17.60416127 63.82868857 -17.58456403 69.00784829 -17.5625 74.1875 C-17.54138101 80.20238168 -17.53680959 86.21672209 -17.56300163 92.23159218 C-17.56636169 94.63607941 -17.5451511 97.0395293 -17.52259827 99.44389343 C-17.52510921 100.91726914 -17.52866891 102.39064357 -17.53344727 103.86401367 C-17.52724869 105.14861984 -17.52105011 106.43322601 -17.5146637 107.75675964 C-18 111 -18 111 -19.55723572 113.41365051 C-22.85587608 115.55581236 -25.74219608 115.56109182 -29.55078125 115.51757812 C-30.30571869 115.5245874 -31.06065613 115.53159668 -31.83847046 115.53881836 C-34.33018948 115.55640198 -36.82076974 115.54477511 -39.3125 115.53125 C-41.04598203 115.53394483 -42.77946259 115.53782717 -44.51293945 115.54284668 C-48.14451501 115.5487422 -51.7756968 115.54017726 -55.40722656 115.52148438 C-60.06144045 115.49869454 -64.71473171 115.51181737 -69.36891174 115.53577423 C-72.94802803 115.55023091 -76.5269257 115.54562687 -80.10604858 115.53526306 C-81.82205311 115.5325954 -83.53807751 115.53586693 -85.25405884 115.54518127 C-87.65297996 115.55534508 -90.05040875 115.53985007 -92.44921875 115.51757812 C-93.51225723 115.52972351 -93.51225723 115.52972351 -94.59677124 115.54211426 C-97.76536747 115.48763509 -99.75155335 115.15874831 -102.44056702 113.44056702 C-104.55294919 110.13461523 -104.55344379 107.23407961 -104.50170898 103.43334961 C-104.50711197 102.67680588 -104.51251495 101.92026215 -104.51808167 101.14079285 C-104.53057232 98.64424319 -104.51407826 96.1488459 -104.49609375 93.65234375 C-104.49624872 91.91646769 -104.49773728 90.18059127 -104.50050354 88.44471741 C-104.50188762 84.80893638 -104.48932688 81.17354981 -104.46655273 77.5378418 C-104.43814675 72.87467823 -104.44091094 68.21216903 -104.45364285 63.54895687 C-104.46059286 59.96560564 -104.4528189 56.38240604 -104.44038582 52.79907417 C-104.4358662 51.07945906 -104.43553897 49.35982771 -104.43945122 47.64021111 C-104.44235739 45.23888562 -104.42588673 42.83846684 -104.40405273 40.43725586 C-104.40855438 39.72496826 -104.41305603 39.01268066 -104.41769409 38.27880859 C-104.37623095 35.53829918 -104.25674516 33.45004632 -102.88375854 31.04335022 C-100.02587158 29.46046318 -97.70245967 29.74357212 -94.45581055 29.86914062 C-93.0860807 29.91128343 -91.71634467 29.9532254 -90.34660339 29.99499512 C-89.62073721 30.02250351 -88.89487103 30.0500119 -88.1470089 30.07835388 C-84.27812108 30.21168692 -80.40774284 30.25197467 -76.53710938 30.30859375 C-71.62131853 30.38577937 -66.71081147 30.48925374 -61.79858398 30.69580078 C-44.32798892 32.11153384 -44.32798892 32.11153384 -28.1630249 27.16070557 C-23.68042367 22.81484074 -20.75975794 17.87104705 -18.12240601 12.25369263 C-16.54013148 9.07662442 -14.52483864 6.59119469 -12.25 3.875 C-11.65703125 3.12992188 -11.0640625 2.38484375 -10.453125 1.6171875 C-7.26617326 -1.92958137 -4.38646124 -1.00042098 0 0 Z " fill="#97D97B" transform="translate(154,181)"/>
<path d="M0 0 C3.875 0.75 3.875 0.75 6.375 2.375 C8.4206726 5.61398162 8.4400207 6.92524448 7.875 10.75 C5.960236 14.10121964 3.62347022 17.08772221 1.25 20.125 C0.32380859 21.34316406 0.32380859 21.34316406 -0.62109375 22.5859375 C-1.7938207 24.12653038 -2.9722944 25.66278055 -4.15869141 27.19287109 C-5.13201416 28.4586499 -5.13201416 28.4586499 -6.125 29.75 C-6.63289566 30.23984375 -7.14079132 30.7296875 -7.66407776 31.234375 C-13.90946239 37.91261496 -12.92640418 46.02142323 -12.82421875 54.578125 C-12.82785658 56.21621636 -12.83456458 57.8543035 -12.8441925 59.49237061 C-12.86319063 63.78511697 -12.84928635 68.0770503 -12.82568359 72.36975098 C-12.79118067 79.25340436 -12.79708441 86.13686174 -12.8218174 93.0205307 C-12.82418653 95.42048206 -12.80639774 97.81968632 -12.7865448 100.21954346 C-12.78629669 101.68965662 -12.7866941 103.15977008 -12.7878418 104.62988281 C-12.78084763 105.91147278 -12.77385345 107.19306274 -12.76664734 108.51348877 C-13.15933799 112.06012831 -13.34878366 113.49728959 -16.125 115.75 C-18.80514055 116.15303812 -21.07953159 116.29722411 -23.76171875 116.26757812 C-24.92557602 116.27809204 -24.92557602 116.27809204 -26.11294556 116.28881836 C-28.67982689 116.30643555 -31.2456073 116.29476308 -33.8125 116.28125 C-35.59464734 116.28394386 -37.37679325 116.28782539 -39.15893555 116.29284668 C-42.89483629 116.29874675 -46.63035462 116.29016256 -50.36621094 116.27148438 C-55.15842629 116.24869434 -59.94974564 116.26181473 -64.7419281 116.28577423 C-68.42222869 116.30021858 -72.10231634 116.29563253 -75.78262329 116.28526306 C-77.54969386 116.28259199 -79.31678368 116.28587888 -81.08383179 116.29518127 C-83.55250354 116.30532474 -86.01971823 116.28987834 -88.48828125 116.26757812 C-89.22084137 116.27567505 -89.95340149 116.28377197 -90.7081604 116.29211426 C-93.7533698 116.24107137 -95.66280504 116.12082828 -98.07704163 114.18383789 C-99.49923936 110.8808453 -99.55180267 107.82527084 -99.52905273 104.29101562 C-99.53591599 103.54583176 -99.54277924 102.80064789 -99.54985046 102.03288269 C-99.56812683 99.5738104 -99.56428037 97.11537552 -99.55859375 94.65625 C-99.5631548 92.94518832 -99.56846015 91.23412847 -99.57447815 89.52307129 C-99.5834106 85.93864495 -99.58098424 82.35444139 -99.57104492 78.77001953 C-99.55954833 74.17636903 -99.57977617 69.58348644 -99.60896206 64.98993683 C-99.62730556 61.45716467 -99.62703545 57.92457723 -99.62132454 54.39176941 C-99.62117113 52.69808372 -99.62723149 51.00438566 -99.63961601 49.31074524 C-99.65449184 46.94300084 -99.64387608 44.57668404 -99.62670898 42.20898438 C-99.63637695 41.50964279 -99.64604492 40.81030121 -99.65600586 40.08976746 C-99.60746367 36.89311625 -99.2797368 34.98386332 -97.50202942 32.29710388 C-94.32241902 30.22763535 -92.36657182 30.36140536 -88.59082031 30.53735352 C-87.94294052 30.56074799 -87.29506073 30.58414246 -86.62754822 30.60824585 C-85.22226979 30.65910509 -83.81726142 30.71791148 -82.41260529 30.78375435 C-78.61920747 30.94711811 -74.82337073 30.9962864 -71.02734375 31.06835938 C-66.21192257 31.16908346 -61.40291687 31.30084081 -56.59228516 31.54174805 C-39.16377281 32.985867 -39.16377281 32.985867 -23.13012695 27.74139404 C-18.17267061 22.9265194 -14.74562963 17.43006771 -11.53601074 11.35079956 C-5.5445819 0.30729363 -5.5445819 0.30729363 0 0 Z " fill="#97D97B" transform="translate(149.125,307.25)"/>
<path d="M0 0 C3.13127579 1.78092768 5.76389082 3.5209133 8.26953125 6.109375 C8.84413086 6.69557617 9.41873047 7.28177734 10.01074219 7.88574219 C10.60532227 8.50094727 11.19990234 9.11615234 11.8125 9.75 C16.10069337 14.11822187 20.40250882 18.34058438 25.078125 22.296875 C28.39636801 25.23743182 31.45151727 28.44483864 34.56640625 31.59765625 C36.63242365 33.63714373 38.73005549 35.555078 40.9375 37.4375 C44.80617798 40.74346118 48.36064305 44.33144678 51.93115234 47.95068359 C55.14573594 51.19200895 58.47504455 54.21168387 61.94921875 57.16796875 C65.42360719 60.27175576 68.64580142 63.62774078 71.8984375 66.9609375 C73.83096046 69.04126091 73.83096046 69.04126091 76 70 C76 70.66 76 71.32 76 72 C68.17128767 72.07626941 60.34267173 72.12869218 52.51367188 72.16479492 C49.85203577 72.17815167 47.19088714 72.20029814 44.52929688 72.22631836 C40.69655248 72.26284115 36.8641371 72.27975892 33.03125 72.29296875 C31.84760864 72.30845261 30.66396729 72.32393646 29.44445801 72.33988953 C20.2922566 72.34174023 13.44491364 71.01793443 6.5390625 64.6796875 C1.69645888 59.39461248 -0.13065429 53.82956543 -0.11352539 46.77246094 C-0.11344986 45.73168396 -0.11337433 44.69090698 -0.11329651 43.61859131 C-0.10813522 42.50179993 -0.10297394 41.38500854 -0.09765625 40.234375 C-0.0962413 39.08584045 -0.09482635 37.93730591 -0.09336853 36.75396729 C-0.08777143 33.08595169 -0.07521944 29.41799715 -0.0625 25.75 C-0.05748463 23.26302171 -0.05292178 20.77604247 -0.04882812 18.2890625 C-0.03780295 12.1926875 -0.02106769 6.09634811 0 0 Z " fill="#CECECE" transform="translate(293,25)"/>
<path d="M0 0 C5.19701222 -0.09189216 10.39120116 -0.17150632 15.58837891 -0.21972656 C17.35572872 -0.2398285 19.12301213 -0.26711472 20.89013672 -0.30175781 C23.43213285 -0.35034009 25.97324896 -0.37298226 28.515625 -0.390625 C29.69865204 -0.42159271 29.69865204 -0.42159271 30.90557861 -0.45318604 C34.31620762 -0.45457764 36.46390754 -0.41495465 39.20933628 1.71010494 C41.33944778 4.43408473 41.50040345 5.67385376 41.50120544 9.09242249 C41.51103958 10.12011246 41.52087372 11.14780243 41.53100586 12.20663452 C41.51650391 13.88917831 41.51650391 13.88917831 41.50170898 15.60571289 C41.50711197 16.79141373 41.51251495 17.97711456 41.51808167 19.19874573 C41.52844426 22.44677561 41.52086891 25.69414373 41.50437045 28.94213033 C41.4905148 32.34134282 41.49698049 35.74052471 41.50050354 39.13975525 C41.50320491 44.8469191 41.48973536 50.55387254 41.46655273 56.26098633 C41.43993052 62.86057206 41.4382001 69.45980628 41.4499411 76.05942732 C41.46071652 82.40796984 41.45453455 88.75638512 41.44038582 95.10491753 C41.43462519 97.80703168 41.43470922 100.50905276 41.43945122 103.21116829 C41.44235145 106.98222403 41.42591281 110.75269914 41.40405273 114.52368164 C41.40855438 115.64740173 41.41305603 116.77112183 41.41769409 117.92889404 C41.40778946 118.95376419 41.39788483 119.97863434 41.38768005 121.03456116 C41.38525016 121.92627046 41.38282026 122.81797976 41.38031673 123.73671055 C40.92048411 126.47320417 40.18010317 127.33500949 38 129 C35.04091495 130.01231857 33.41079334 130.10758873 30.375 129.3125 C27.6741105 127.81990317 26.62350866 126.60436273 25 124 C24.63085651 121.82113266 24.63085651 121.82113266 24.63923645 119.41888428 C24.63511246 118.50465698 24.63098846 117.59042969 24.6267395 116.64849854 C24.63752533 115.65299988 24.64831116 114.65750122 24.65942383 113.63183594 C24.65876671 112.05088135 24.65876671 112.05088135 24.65809631 110.43798828 C24.66018681 106.95326228 24.68353079 103.46901699 24.70703125 99.984375 C24.71262626 97.56870792 24.71689681 95.15303743 24.71989441 92.73736572 C24.73135058 86.37836311 24.76082469 80.01956595 24.79400635 73.66064453 C24.82469042 67.17222879 24.83839621 60.68377987 24.85351562 54.1953125 C24.88569345 41.46343686 24.93846796 28.73176765 25 16 C16.75 16 8.5 16 0 16 C0 10.72 0 5.44 0 0 Z " fill="#CECECE" transform="translate(471,112)"/>
<path d="M0 0 C1.24356766 -0.0112793 2.48713531 -0.02255859 3.76838684 -0.03417969 C5.14381642 -0.02640267 6.51924369 -0.01821 7.89466858 -0.00964355 C9.34526268 -0.01506458 10.79585128 -0.02218713 12.24642944 -0.03088379 C16.18455645 -0.04912438 20.12226445 -0.04204638 24.06039882 -0.02936745 C28.18205188 -0.01924156 32.30366902 -0.02863216 36.42532349 -0.03491211 C43.34811341 -0.04219055 50.27073269 -0.03259658 57.1934967 -0.0135498 C65.19499237 0.00821082 73.19608022 0.00117442 81.19756597 -0.02085543 C88.06819171 -0.03901415 94.93869474 -0.04156521 101.80933672 -0.03110075 C105.91248893 -0.02486727 110.01544954 -0.02402589 114.1185894 -0.0372467 C117.97731905 -0.04881126 121.8355237 -0.04076898 125.6941967 -0.01766968 C127.1095289 -0.01238537 128.52490535 -0.0138917 129.94021988 -0.02272034 C131.87378602 -0.03366867 133.80744883 -0.01749755 135.7409668 0 C136.82256545 0.0015081 137.9041641 0.0030162 139.01853848 0.00457001 C142.67279403 0.63549529 144.35335051 1.88056406 146.93397522 4.50793457 C147.49647522 8.00793457 147.49647522 8.00793457 146.93397522 11.50793457 C144.80864238 14.31945726 143.62898193 15.38334733 140.12596893 16.01129913 C139.03607414 16.01280724 137.94617935 16.01431534 136.82325745 16.01586914 C135.56983047 16.02714844 134.3164035 16.03842773 133.0249939 16.05004883 C131.63853223 16.04227184 130.25207285 16.03407918 128.86561584 16.0255127 C127.40354719 16.03093362 125.94148399 16.03805611 124.47943115 16.04675293 C120.51038161 16.06499308 116.54174781 16.05791612 112.57269096 16.04523659 C108.41987357 16.03511241 104.26709186 16.04450064 100.11427307 16.05078125 C93.140209 16.05805937 86.16631435 16.0484657 79.192276 16.02941895 C71.12827748 16.00764979 63.06468347 16.01470105 55.00069475 16.03672457 C48.07828066 16.05487394 41.15598837 16.05743918 34.23355818 16.04696989 C30.0985803 16.04073238 25.96379258 16.0399063 21.8288269 16.05311584 C17.94137439 16.06466712 14.05444362 16.05666245 10.1670475 16.03353882 C8.74000732 16.02824777 7.31292325 16.02977235 5.8859005 16.03858948 C3.93884723 16.04951095 1.99169806 16.03338978 0.04469299 16.01586914 C-1.0452018 16.01436104 -2.13509659 16.01285294 -3.25801849 16.01129913 C-6.76068082 15.38341019 -7.9438613 14.32191347 -10.06602478 11.50793457 C-10.56602478 8.00793457 -10.56602478 8.00793457 -10.06602478 4.50793457 C-7.05452427 0.52145043 -4.89654824 0.00682977 0 0 Z " fill="#5A5959" transform="translate(108.06602478027344,123.4920654296875)"/>
<path d="M0 0 C1.24356766 -0.0112793 2.48713531 -0.02255859 3.76838684 -0.03417969 C5.14381642 -0.02640267 6.51924369 -0.01821 7.89466858 -0.00964355 C9.34526268 -0.01506458 10.79585128 -0.02218713 12.24642944 -0.03088379 C16.18455645 -0.04912438 20.12226445 -0.04204638 24.06039882 -0.02936745 C28.18205188 -0.01924156 32.30366902 -0.02863216 36.42532349 -0.03491211 C43.34811341 -0.04219055 50.27073269 -0.03259658 57.1934967 -0.0135498 C65.19499237 0.00821082 73.19608022 0.00117442 81.19756597 -0.02085543 C88.06819171 -0.03901415 94.93869474 -0.04156521 101.80933672 -0.03110075 C105.91248893 -0.02486727 110.01544954 -0.02402589 114.1185894 -0.0372467 C117.97731905 -0.04881126 121.8355237 -0.04076898 125.6941967 -0.01766968 C127.1095289 -0.01238537 128.52490535 -0.0138917 129.94021988 -0.02272034 C131.87378602 -0.03366867 133.80744883 -0.01749755 135.7409668 0 C136.82256545 0.0015081 137.9041641 0.0030162 139.01853848 0.00457001 C142.67279403 0.63549529 144.35335051 1.88056406 146.93397522 4.50793457 C147.49647522 8.00793457 147.49647522 8.00793457 146.93397522 11.50793457 C144.80864238 14.31945726 143.62898193 15.38334733 140.12596893 16.01129913 C139.03607414 16.01280724 137.94617935 16.01431534 136.82325745 16.01586914 C135.56983047 16.02714844 134.3164035 16.03842773 133.0249939 16.05004883 C131.63853223 16.04227184 130.25207285 16.03407918 128.86561584 16.0255127 C127.40354719 16.03093362 125.94148399 16.03805611 124.47943115 16.04675293 C120.51038161 16.06499308 116.54174781 16.05791612 112.57269096 16.04523659 C108.41987357 16.03511241 104.26709186 16.04450064 100.11427307 16.05078125 C93.140209 16.05805937 86.16631435 16.0484657 79.192276 16.02941895 C71.12827748 16.00764979 63.06468347 16.01470105 55.00069475 16.03672457 C48.07828066 16.05487394 41.15598837 16.05743918 34.23355818 16.04696989 C30.0985803 16.04073238 25.96379258 16.0399063 21.8288269 16.05311584 C17.94137439 16.06466712 14.05444362 16.05666245 10.1670475 16.03353882 C8.74000732 16.02824777 7.31292325 16.02977235 5.8859005 16.03858948 C3.93884723 16.04951095 1.99169806 16.03338978 0.04469299 16.01586914 C-1.0452018 16.01436104 -2.13509659 16.01285294 -3.25801849 16.01129913 C-6.76068082 15.38341019 -7.9438613 14.32191347 -10.06602478 11.50793457 C-10.56602478 8.00793457 -10.56602478 8.00793457 -10.06602478 4.50793457 C-7.05452427 0.52145043 -4.89654824 0.00682977 0 0 Z " fill="#595959" transform="translate(108.06602478027344,75.4920654296875)"/>
<path d="M0 0 C1.21977036 -0.01265396 2.43954071 -0.02530792 3.6962738 -0.03834534 C5.04495663 -0.02702941 6.39363524 -0.01520195 7.74230957 -0.00291443 C9.16497185 -0.00805341 10.58762776 -0.01533453 12.01026917 -0.02459717 C15.87198745 -0.04312274 19.73301595 -0.03016596 23.59470558 -0.01050687 C27.63541093 0.00587174 31.67607232 -0.00293215 35.71679688 -0.00802612 C42.50259426 -0.01254799 49.28811608 0.0033283 56.07385254 0.03126526 C63.91974057 0.06331776 71.76513158 0.06330185 79.6110549 0.04605049 C87.15776395 0.03018807 94.70429074 0.03691707 102.25099182 0.0539875 C105.46306712 0.06086112 108.67499645 0.05982243 111.8870697 0.05244255 C115.66949096 0.04478268 119.45134643 0.05689523 123.23367119 0.08429146 C124.62200173 0.09117965 126.01038507 0.09126854 127.39871407 0.08407593 C129.29324004 0.07539164 131.18783259 0.09376285 133.08227539 0.11352539 C134.14267281 0.11633231 135.20307022 0.11913923 136.29560089 0.12203121 C139.75218814 0.75927594 140.93436277 1.8576571 143.0411377 4.62818909 C143.6036377 8.12818909 143.6036377 8.12818909 143.0411377 11.62818909 C140.48920937 14.21207287 138.80526115 15.49262855 135.2037878 16.13155365 C134.15906087 16.13306175 133.11433393 16.13456985 132.03794861 16.13612366 C130.23147354 16.1530426 130.23147354 16.1530426 128.38850403 16.17030334 C127.07560898 16.16220642 125.76271393 16.1541095 124.41003418 16.14576721 C123.00693028 16.15119007 121.60383208 16.15831366 120.20074463 16.16700745 C116.39703207 16.18522292 112.59375409 16.17818134 108.79003406 16.1654911 C104.80805471 16.15535611 100.82611229 16.16475798 96.84413147 16.17103577 C90.15851161 16.17830989 83.47306859 16.16872984 76.78747559 16.14967346 C69.0580242 16.12789615 61.32899472 16.13496305 53.59955353 16.15697908 C46.96161647 16.17512925 40.32380644 16.1776936 33.68585259 16.16722441 C29.72191422 16.16098846 25.75817421 16.16015666 21.79424858 16.17337036 C18.06846733 16.18492313 14.34323037 16.1769144 10.61750793 16.15379333 C8.59776051 16.14597965 6.57796705 16.15786642 4.5582428 16.17030334 C3.35674591 16.15902405 2.15524902 16.14774475 0.91734314 16.13612366 C-0.64918172 16.1338615 -0.64918172 16.1338615 -2.24735355 16.13155365 C-5.66980644 15.4962094 -6.82992732 14.33055089 -8.9588623 11.62818909 C-9.9588623 8.69068909 -9.9588623 8.69068909 -9.9588623 5.62818909 C-7.14061366 1.03582294 -5.33957099 0.00295233 0 0 Z " fill="#5A5A5A" transform="translate(182.9588623046875,267.37181091308594)"/>
<path d="M0 0 C1.1944574 -0.0112793 2.38891479 -0.02255859 3.61956787 -0.03417969 C4.92154114 -0.02608276 6.2235144 -0.01798584 7.56494141 -0.00964355 C8.95657076 -0.01506654 10.34819437 -0.02219019 11.73980713 -0.03088379 C15.51259725 -0.04909952 19.28494923 -0.04205714 23.05774689 -0.02936745 C27.0085619 -0.01923058 30.95933974 -0.02863503 34.91015625 -0.03491211 C41.54450201 -0.04218654 48.17866958 -0.03260628 54.81298828 -0.0135498 C62.47993691 0.00821867 70.14646004 0.00116715 77.81339836 -0.02085543 C84.39954708 -0.03901535 90.98556781 -0.04156489 97.57173347 -0.03110075 C101.50384621 -0.02486903 105.43575904 -0.02402121 109.36785889 -0.0372467 C113.06491738 -0.04881336 116.76142804 -0.04076534 120.45842743 -0.01766968 C122.46009063 -0.00986948 124.46180025 -0.02173156 126.46343994 -0.03417969 C128.25512604 -0.01726074 128.25512604 -0.01726074 130.08300781 0 C131.63708847 0.00226215 131.63708847 0.00226215 133.2225647 0.00457001 C136.81156377 0.6454405 138.4964013 1.93429028 141.04150391 4.50793457 C141.60400391 8.00793457 141.60400391 8.00793457 141.04150391 11.50793457 C138.93472898 14.27846656 137.75255435 15.37684772 134.2959671 16.01409245 C133.23556969 16.01689937 132.17517227 16.01970629 131.0826416 16.02259827 C129.25298607 16.04168495 129.25298607 16.04168495 127.3863678 16.06115723 C126.03768727 16.05497503 124.68900863 16.04836901 123.34033203 16.04138184 C121.91766973 16.04844036 120.49501493 16.0571851 119.07237244 16.06748962 C115.21077067 16.08999998 111.34957843 16.08704044 107.48793602 16.07816815 C104.26461326 16.07306016 101.04136759 16.08034917 97.81805277 16.08764023 C90.2148964 16.10464407 82.61194071 16.10106815 75.00878906 16.08435059 C67.16284935 16.0674224 59.3174657 16.08327189 51.4715867 16.11557347 C44.73600091 16.14225418 38.00058838 16.14954971 31.26495504 16.14105839 C27.24170178 16.13612542 23.21878325 16.13836453 19.1955719 16.1588459 C15.41308991 16.17717996 11.63140914 16.17127348 7.84897041 16.1466465 C6.46062687 16.14163149 5.07222252 16.14514646 3.68392754 16.15779495 C1.78946 16.1736902 -0.10520151 16.1557766 -1.99963379 16.13612366 C-3.0600312 16.13553735 -4.12042862 16.13495104 -5.21295929 16.13434696 C-7.95849609 15.50793457 -7.95849609 15.50793457 -10.32701874 13.160079 C-11.95849609 10.50793457 -11.95849609 10.50793457 -12.02099609 7.44543457 C-9.91390857 1.61995731 -5.90082425 0.00858937 0 0 Z " fill="#5C5C5C" transform="translate(184.95849609375,352.4920654296875)"/>
<path d="M0 0 C1.20149689 -0.0112793 2.40299377 -0.02255859 3.64089966 -0.03417969 C5.61327858 -0.0220343 5.61327858 -0.0220343 7.62550354 -0.00964355 C9.02683744 -0.01506481 10.42816563 -0.0221875 11.82948303 -0.03088379 C15.63332168 -0.0491217 19.43672644 -0.04204752 23.24057269 -0.02936745 C27.22209006 -0.01924008 31.20357028 -0.02863257 35.18508911 -0.03491211 C41.8724891 -0.04219015 48.55971241 -0.03259768 55.24708557 -0.0135498 C62.97592828 0.00821047 70.70434878 0.00117456 78.43318123 -0.02085543 C85.07026449 -0.03901567 91.70722075 -0.04156447 98.34432083 -0.03110075 C102.30774705 -0.02486806 106.27097492 -0.02402369 110.23438835 -0.0372467 C113.96180065 -0.04881349 117.68866957 -0.04076504 121.41602325 -0.01766968 C123.43439489 -0.00986886 125.45281256 -0.02173207 127.47116089 -0.03417969 C129.27763596 -0.01726074 129.27763596 -0.01726074 131.12060547 0 C132.1653324 0.0015081 133.21005934 0.0030162 134.28644466 0.00457001 C137.88791801 0.64349511 139.57186623 1.92405079 142.12379456 4.50793457 C142.68629456 8.00793457 142.68629456 8.00793457 142.12379456 11.50793457 C140.01582169 14.28180992 138.83705706 15.37802343 135.37546444 16.00850582 C133.78292009 16.00881975 133.78292009 16.00881975 132.15820312 16.00914001 C130.93698761 16.01897415 129.71577209 16.02880829 128.45755005 16.03894043 C127.10728175 16.02956881 125.75701624 16.01978951 124.40675354 16.00964355 C122.98247239 16.01342721 121.55819492 16.01892763 120.13392639 16.02601624 C116.26822622 16.03998113 112.4029706 16.02879471 108.5372951 16.01230502 C104.49345721 15.99845976 100.44964527 16.0049139 96.40579224 16.00843811 C89.61583791 16.01114035 82.82606034 15.99766252 76.03614807 15.9744873 C68.18235297 15.9478667 60.32885323 15.94613376 52.47502846 15.95787567 C44.92300153 15.96864803 37.37108161 15.96247137 29.81906319 15.94832039 C26.60339394 15.94255693 23.3878029 15.94264604 20.17213249 15.94738579 C16.38734415 15.95215192 12.60288003 15.94206943 8.81815338 15.92043114 C7.42778428 15.91485845 6.03738405 15.9144024 4.64701271 15.919384 C2.75213533 15.9253227 0.85722642 15.91101811 -1.03759766 15.89561462 C-2.09891686 15.89318473 -3.16023607 15.89075483 -4.25371647 15.8882513 C-6.87620544 15.50793457 -6.87620544 15.50793457 -8.71377468 14.22979832 C-10.35312913 11.80148595 -10.28948655 9.40840826 -10.37229919 6.54309082 C-9.04193149 1.08544064 -5.07585154 0.00732983 0 0 Z " fill="#5B5B5B" transform="translate(183.87620544433594,396.4920654296875)"/>
<path d="M0 0 C1.2113562 -0.00990463 2.4227124 -0.01980927 3.67077637 -0.03001404 C5.01001078 -0.02577609 6.34924421 -0.02121824 7.68847656 -0.01637268 C9.10128317 -0.02207596 10.51408516 -0.02904006 11.92687988 -0.03717041 C15.76156643 -0.05512047 19.5960244 -0.05393019 23.43074036 -0.04822803 C26.63168361 -0.04513923 29.83258276 -0.05122507 33.03351974 -0.05726677 C40.58390721 -0.07131606 48.13418153 -0.06974701 55.68457031 -0.05836487 C63.47590264 -0.04687912 71.26689095 -0.06096587 79.05817795 -0.08776134 C85.74703777 -0.10990471 92.4357895 -0.11655894 99.12468338 -0.11068493 C103.11994922 -0.10731134 107.11499444 -0.10975701 111.11022949 -0.12693596 C114.86634214 -0.14238183 118.6219442 -0.13847642 122.3780365 -0.11963081 C123.75670777 -0.11593851 125.13541669 -0.11907215 126.51405334 -0.1295166 C128.39539809 -0.14268181 130.27687431 -0.12879856 132.15820312 -0.11352539 C133.73773773 -0.11321146 133.73773773 -0.11321146 135.34918213 -0.1128912 C138.79748134 0.51940565 139.97662712 1.62568127 142.07910156 4.38768005 C142.64160156 7.88768005 142.64160156 7.88768005 142.07910156 11.38768005 C139.52717324 13.97156383 137.84322502 15.25211952 134.24175167 15.89104462 C133.19702474 15.89255272 132.1522978 15.89406082 131.07591248 15.89561462 C129.26943741 15.91253357 129.26943741 15.91253357 127.4264679 15.92979431 C126.11357285 15.92169739 124.8006778 15.91360046 123.44799805 15.90525818 C122.04489415 15.91068104 120.64179594 15.91780463 119.2387085 15.92649841 C115.43499594 15.94471388 111.63171796 15.9376723 107.82799792 15.92498207 C103.84601858 15.91484708 99.86407616 15.92424894 95.88209534 15.93052673 C89.19647548 15.93780086 82.51103246 15.9282208 75.82543945 15.90916443 C68.09598807 15.88738711 60.36695859 15.89445402 52.63751739 15.91647005 C45.99958034 15.93462021 39.3617703 15.93718456 32.72381645 15.92671537 C28.75987809 15.92047943 24.79613807 15.91964763 20.83221245 15.93286133 C17.1064312 15.94441409 13.38119424 15.93640537 9.6554718 15.9132843 C7.63572437 15.90547062 5.61593092 15.91735739 3.59620667 15.92979431 C2.39470978 15.91851501 1.19321289 15.90723572 -0.04469299 15.89561462 C-1.61121786 15.89335247 -1.61121786 15.89335247 -3.20938969 15.89104462 C-6.61181351 15.25941856 -7.79506747 14.06159065 -9.92089844 11.38768005 C-10.69334811 8.42851624 -10.31869986 6.52036627 -9.92089844 3.38768005 C-6.84839217 0.20296012 -4.31044985 0.00994655 0 0 Z " fill="#595959" transform="translate(183.9208984375,223.61231994628906)"/>
<path d="M0 0 C8.75955523 8.16646034 8.75955523 8.16646034 9.12025452 13.9172821 C9.11803391 14.63898087 9.11581329 15.36067963 9.11352539 16.10424805 C9.11344986 16.92487228 9.11337433 17.74549652 9.11329651 18.59098816 C9.10813522 19.47232925 9.10297394 20.35367035 9.09765625 21.26171875 C9.0962413 22.16751175 9.09482635 23.07330475 9.09336853 24.00654602 C9.08777001 26.90023091 9.07521781 29.79383849 9.0625 32.6875 C9.05748481 34.64908742 9.05292193 36.61067606 9.04882812 38.57226562 C9.03780107 43.38154021 9.02053747 48.190757 9 53 C3.17928378 53.02464638 -2.64140234 53.0428343 -8.4621582 53.05493164 C-10.44393441 53.05997267 -12.42570689 53.06680538 -14.4074707 53.07543945 C-17.24952109 53.08751515 -20.09152247 53.09323045 -22.93359375 53.09765625 C-24.27108925 53.10539818 -24.27108925 53.10539818 -25.63560486 53.11329651 C-27.75740601 53.11349177 -29.8791078 53.0621003 -32 53 C-34.01499341 50.98500659 -33.21185707 46.92457174 -33.23828125 44.16015625 C-33.246353 43.36403427 -33.25442474 42.56791229 -33.26274109 41.74766541 C-33.27660781 40.05372304 -33.28731832 38.35975243 -33.29516602 36.66577148 C-33.31222307 34.10409077 -33.35606321 31.54375409 -33.40039062 28.98242188 C-33.58073748 10.22703789 -33.58073748 10.22703789 -27.3215332 3.0847168 C-19.98773196 -4.02774456 -8.74722241 -5.31791363 0 0 Z " fill="#B7ADB5" transform="translate(453,35)"/>
<path d="M0 0 C19.47 0 38.94 0 59 0 C55.62455255 10.12634235 55.62455255 10.12634235 53.59570312 14.88354492 C53.1451355 15.9446196 52.69456787 17.00569427 52.23034668 18.09892273 C51.75214478 19.21483292 51.27394287 20.3307431 50.78125 21.48046875 C50.28210083 22.65209061 49.78295166 23.82371246 49.26867676 25.03083801 C48.21806064 27.49484405 47.16614043 29.95823813 46.11181641 32.4206543 C44.76662368 35.56263361 43.42622881 38.70663137 42.08744049 41.85134411 C40.79994562 44.87443573 39.50929326 47.89617748 38.21875 50.91796875 C37.7405481 52.03995163 37.26234619 53.16193451 36.76965332 54.31791687 C34.64122732 59.28563175 32.50484749 64.20963546 30 69 C27.27922125 66.61393595 26.03678482 64.26020234 24.61157227 60.95288086 C24.16423233 59.92428452 23.7168924 58.89568817 23.2559967 57.83592224 C22.78093185 56.72346634 22.305867 55.61101044 21.81640625 54.46484375 C21.07124001 52.74220055 21.07124001 52.74220055 20.3110199 50.98475647 C18.99055511 47.9280552 17.67648668 44.86875927 16.36523438 41.80810547 C15.04301081 38.72693852 13.71127989 35.64990197 12.38085938 32.57226562 C6.62838862 19.23861544 6.62838862 19.23861544 4 13 C3.5976413 12.04553986 3.19528259 11.09107971 2.7807312 10.10769653 C2.41343903 9.21694427 2.04614685 8.32619202 1.66772461 7.40844727 C1.182808 6.2371804 1.182808 6.2371804 0.68809509 5.04225159 C0 3 0 3 0 0 Z " fill="#5B5A5A" transform="translate(412,412)"/>
<path d="M0 0 C2 1.625 2 1.625 3 4 C2.88921974 10.76611738 -0.1162277 14.54276035 -4.1875 19.75 C-5.47301273 21.44243762 -6.75815887 23.13515374 -8.04296875 24.828125 C-9.03176025 26.11686523 -9.03176025 26.11686523 -10.04052734 27.43164062 C-13.08001466 31.41561851 -16.03760562 35.45857667 -19 39.5 C-20.16888787 41.08621978 -21.33815969 42.67215669 -22.5078125 44.2578125 C-24.81978493 47.39502886 -27.12668302 50.53588276 -29.4296875 53.6796875 C-32.31289563 57.61479404 -35.21691422 61.53406926 -38.12451172 65.45117188 C-40.1681181 68.22847604 -42.17898592 71.0281557 -44.19140625 73.828125 C-45.60599853 75.76098212 -47.02134778 77.69328551 -48.4375 79.625 C-49.41275635 81.00437744 -49.41275635 81.00437744 -50.40771484 82.41162109 C-55.05299255 88.67970324 -55.05299255 88.67970324 -59.73046875 90.26171875 C-63.28139308 89.97747511 -64.38005566 89.6436341 -66.875 87.1875 C-67.535 86.54554688 -68.195 85.90359375 -68.875 85.2421875 C-69.57625 84.50226563 -70.2775 83.76234375 -71 83 C-71.804375 82.15695312 -72.60875 81.31390625 -73.4375 80.4453125 C-82.07426319 71.11650098 -82.07426319 71.11650098 -81.875 65.4375 C-81 62 -81 62 -79.375 60 C-75.63283096 58.42434988 -73.876689 58.70777033 -70 60 C-67.03128085 62.77115115 -64.49073953 65.7976206 -62 69 C-57.59342552 64.88009858 -54.14863328 60.32099175 -50.625 55.4375 C-49.37842405 53.72726668 -48.13100037 52.01765099 -46.8828125 50.30859375 C-46.2424707 49.43058105 -45.60212891 48.55256836 -44.94238281 47.64794922 C-41.83026955 43.40536747 -38.66532815 39.20294421 -35.5 35 C-29.82815705 27.46296484 -24.21252577 19.88689686 -18.65429688 12.265625 C-8.28606566 -1.88980445 -8.28606566 -1.88980445 0 0 Z " fill="#5A5B5A" transform="translate(154,181)"/>
<path d="M0 0 C3.8125 0.8125 3.8125 0.8125 6.3125 2.4375 C8.33998336 5.64768199 8.34372723 7.02859456 7.8125 10.8125 C6.0704756 13.93849195 3.89243163 16.68837914 1.6875 19.5 C0.39542383 21.19760506 -0.89623106 22.89553084 -2.1875 24.59375 C-2.85265625 25.45871094 -3.5178125 26.32367188 -4.203125 27.21484375 C-7.2984656 31.2668152 -10.30156716 35.38517093 -13.3125 39.5 C-18.04952121 45.93875244 -22.82484358 52.34731467 -27.63354492 58.73266602 C-32.26916105 64.89725474 -36.83436988 71.1131882 -41.38085938 77.34375 C-50.13332281 89.28541141 -50.13332281 89.28541141 -53.1875 90.8125 C-57.16922491 91.34302436 -58.68965307 91.19137355 -61.93359375 88.72265625 C-62.82175781 87.78292969 -63.70992187 86.84320313 -64.625 85.875 C-65.09655518 85.37718018 -65.56811035 84.87936035 -66.05395508 84.36645508 C-67.45475832 82.86762669 -68.82496036 81.34611632 -70.1875 79.8125 C-71.30898437 78.56339844 -71.30898437 78.56339844 -72.453125 77.2890625 C-75.20533532 74.01102338 -76.99709633 71.72989952 -77.875 67.5 C-76.99275267 64.05121499 -76.15934149 62.79372766 -73.1875 60.8125 C-69.75 60.25 -69.75 60.25 -66.1875 60.8125 C-63.625 63 -63.625 63 -61.1875 65.8125 C-59.230446 67.53657138 -57.21085437 69.16558366 -55.1875 70.8125 C-54.9093042 70.22726562 -54.6311084 69.64203125 -54.34448242 69.0390625 C-53.25173842 66.93612405 -52.06390012 65.10460816 -50.67578125 63.1875 C-50.17312744 62.49148682 -49.67047363 61.79547363 -49.15258789 61.07836914 C-48.60723389 60.33063232 -48.06187988 59.58289551 -47.5 58.8125 C-46.64039673 57.62805298 -46.64039673 57.62805298 -45.76342773 56.41967773 C-40.86186345 49.68837239 -35.87429723 43.02279484 -30.86450195 36.37182617 C-25.86489016 29.73213009 -20.92436779 23.05078604 -16.01782227 16.34204102 C-14.95650596 14.89484998 -13.89053192 13.45106145 -12.81958008 12.01098633 C-11.65856558 10.44704682 -10.51137423 8.87280441 -9.3737793 7.29174805 C-8.76961182 6.47359619 -8.16544434 5.65544434 -7.54296875 4.8125 C-6.72928833 3.69294922 -6.72928833 3.69294922 -5.89916992 2.55078125 C-3.87319344 0.49330692 -2.8548842 0.14187392 0 0 Z " fill="#5A5B5A" transform="translate(149.1875,307.1875)"/>
<path d="M0 0 C0.33 0 0.66 0 1 0 C1.06950586 9.31851357 1.12281415 18.63693792 1.15543652 27.95565414 C1.17109351 32.28270371 1.19233229 36.60957594 1.22631836 40.93652344 C1.25891078 45.11216221 1.27685276 49.28763038 1.28463173 53.46338654 C1.29017547 55.05660945 1.30100105 56.64982302 1.31719017 58.24297333 C1.3389634 60.47436205 1.34196705 62.7050456 1.34057617 64.93652344 C1.34723801 66.20671326 1.35389984 67.47690308 1.36076355 68.7855835 C0.9758444 72.2152273 0.476711 73.63325177 -2 76 C-4.91088867 76.45410156 -4.91088867 76.45410156 -8.41796875 76.390625 C-9.67158203 76.37773437 -10.92519531 76.36484375 -12.21679688 76.3515625 C-13.52712891 76.31804687 -14.83746094 76.28453125 -16.1875 76.25 C-17.5227601 76.22993307 -18.85804883 76.21168262 -20.19335938 76.1953125 C-23.46296146 76.14809803 -26.73112192 76.08225184 -30 76 C-29.34 75.01 -28.68 74.02 -28 73 C-27.94810322 70.3892214 -28.00801128 67.88879012 -28.15625 65.2890625 C-28.21085711 63.71753358 -28.2628518 62.14591215 -28.3125 60.57421875 C-28.39824368 58.11249809 -28.49817363 55.65568427 -28.64453125 53.19677734 C-29.21854593 43.10436915 -28.87000493 36.20605352 -22.05783081 28.38613892 C-20.71513551 26.91498179 -19.35778091 25.45724567 -18 24 C-16.67348569 22.27040297 -15.37134977 20.52166204 -14.1015625 18.75 C-13.52019531 17.95722656 -12.93882813 17.16445313 -12.33984375 16.34765625 C-11.77394531 15.57292969 -11.20804688 14.79820312 -10.625 14 C-2.76141512 3.24564432 -2.76141512 3.24564432 0 0 Z " fill="#69CA45" transform="translate(135,347)"/>
<path d="M0 0 C0.33 0 0.66 0 1 0 C1.04630689 9.46618938 1.08186079 18.93233988 1.10362434 28.39861774 C1.11406888 32.79402474 1.12824027 37.18935435 1.15087891 41.5847168 C1.17258344 45.82517955 1.18456358 50.06556777 1.18975449 54.30608177 C1.19345454 55.92523561 1.20067969 57.54438529 1.21146011 59.16350746 C1.22594339 61.4285125 1.22797929 63.69320818 1.22705078 65.95825195 C1.231492 67.24842728 1.23593323 68.5386026 1.24050903 69.86787415 C1 73 1 73 -1 76 C-3.79736328 76.34057617 -3.79736328 76.34057617 -7.3203125 76.29296875 C-8.57714844 76.28330078 -9.83398438 76.27363281 -11.12890625 76.26367188 C-13.10697266 76.2259668 -13.10697266 76.2259668 -15.125 76.1875 C-16.46482903 76.17245483 -17.80467404 76.15876613 -19.14453125 76.14648438 C-22.43008842 76.11102872 -25.71484582 76.06160849 -29 76 C-28.505 75.01 -28.505 75.01 -28 74 C-28.00074896 71.44004777 -28.05562973 68.90103685 -28.140625 66.34375 C-28.7704271 34.75614839 -28.7704271 34.75614839 -17.78515625 22.96875 C-17.16914551 22.34226563 -16.55313477 21.71578125 -15.91845703 21.0703125 C-12.29189926 17.15669455 -9.3359752 12.71757116 -6.25 8.375 C-5.0735758 6.75353921 -3.89180821 5.13593284 -2.703125 3.5234375 C-2.20458008 2.84200684 -1.70603516 2.16057617 -1.19238281 1.45849609 C-0.79889648 0.97719238 -0.40541016 0.49588867 0 0 Z " fill="#69CA45" transform="translate(135,219)"/>
<path d="M0 0 C5.28771331 4.83448074 10.14529245 10.12663269 10.56762695 17.58007812 C10.56684798 19.23068048 10.53935209 20.88143773 10.48828125 22.53125 C10.48120651 23.40777222 10.47413177 24.28429443 10.46684265 25.18737793 C10.43907969 27.95915785 10.37637935 30.72884131 10.3125 33.5 C10.28739356 35.39059562 10.26458452 37.28122322 10.24414062 39.171875 C10.19358347 43.78268734 10.09570749 48.38902601 10 53 C3.07 53 -3.86 53 -11 53 C-11.09240113 47.91280445 -11.17185895 42.82858063 -11.21972656 37.74121094 C-11.23970285 36.01487298 -11.26689372 34.28860147 -11.30175781 32.5625 C-11.72752729 10.92339242 -11.72752729 10.92339242 -5.10253906 4.02392578 C-3.46122621 2.56301025 -1.80641044 1.24824991 0 0 Z " fill="#CDCDCD" transform="translate(431,34)"/>
<path d="M0 0 C12.54 0 25.08 0 38 0 C36.00672163 5.9798351 33.96494931 11.72982775 31.49609375 17.5 C31.17214127 18.26175537 30.84818878 19.02351074 30.51441956 19.80834961 C29.83643112 21.39890906 29.15655834 22.98866654 28.47485352 24.57763672 C27.42949934 27.01868264 26.39523545 29.46424366 25.36132812 31.91015625 C24.69858358 33.46122263 24.03519568 35.01201431 23.37109375 36.5625 C23.06272079 37.2946875 22.75434784 38.026875 22.43663025 38.78125 C20.22896195 43.88551903 20.22896195 43.88551903 18 45 C15.42891641 39.0767594 12.86629368 33.1499121 10.30957031 27.22045898 C9.43847773 25.20301247 8.56543882 23.1864052 7.69042969 21.1706543 C6.43434382 18.27610269 5.1852475 15.37862274 3.9375 12.48046875 C3.54377197 11.57725388 3.15004395 10.674039 2.74438477 9.74345398 C2.38401123 8.90280899 2.0236377 8.062164 1.65234375 7.19604492 C1.33257568 6.45658127 1.01280762 5.71711761 0.68334961 4.95524597 C0 3 0 3 0 0 Z " fill="#858381" transform="translate(412,412)"/>
<path d="M0 0 C5.94 0 11.88 0 18 0 C13.71544368 6.64106229 9.21073439 13.0430984 4 19 C3.67 19 3.34 19 3 19 C2.92652344 17.31970703 2.92652344 17.31970703 2.8515625 15.60546875 C2.77652144 14.13278797 2.70097418 12.66013293 2.625 11.1875 C2.57859375 10.08051758 2.57859375 10.08051758 2.53125 8.95117188 C2.32653852 5.18106885 2.13566173 3.20349259 0 0 Z " fill="#6AC847" transform="translate(105,338)"/>
<path d="M0 0 C5.61 0 11.22 0 17 0 C14.84936639 4.30126721 12.28234785 7.89616001 9.4375 11.75 C8.93025391 12.44738281 8.42300781 13.14476562 7.90039062 13.86328125 C6.6273237 15.59573718 5.31684046 17.30057829 4 19 C3.67 19 3.34 19 3 19 C2.92652344 17.31970703 2.92652344 17.31970703 2.8515625 15.60546875 C2.77652144 14.13278797 2.70097418 12.66013293 2.625 11.1875 C2.57859375 10.08051758 2.57859375 10.08051758 2.53125 8.95117188 C2.32653852 5.18106885 2.13566173 3.20349259 0 0 Z " fill="#68C845" transform="translate(105,211)"/>
</svg>
